<svg xmlns="http://www.w3.org/2000/svg">
<defs>
<font id="Sheba" horiz-adv-x="0" >
  <font-face 
    font-family="Sheba YE"
    font-weight="250"
    font-stretch="squinchy"
    units-per-em="2048"
    panose-1="2 0 5 0 0 0 0 0 0 0"
    ascent="1638"
    descent="-410"
    x-height="839"
    cap-height="1321"
    bbox="-342 -879 2257 1812"
    underline-thickness="50"
    underline-position="-150"
    unicode-range="U+000D-FEFC"
  />
<missing-glyph horiz-adv-x="2159" 
d="M789 1212q19 -10 51 -61q30 -48 78 -129q25 -42 57.5 -90t74.5 -104q70 -94 169 -114q87 -19 120 29l-18 -1q-26 -1 -52 2.5t-51 11.5q-68 20 -92 91q-28 88 27 191q43 78 117 113q70 31 124 6q41 -20 55 -83q9 -42 2 -68q-3 -13 -6 -19q-34 -66 -80 -47q-18 7 -26 27
q-7 21 2 44q33 35 16 70q-8 14 -26 15q-21 2 -51 -17q-35 -20 -54 -51q-44 -71 -23 -134q10 -31 47 -51q37 -19 76 -15q76 9 162 94q14 14 37.5 37t55.5 55q56 51 97 19q16 -13 16 -35q-2 -25 -21 -44q-58 -17 -108 -70q-13 -14 -24 -27t-20 -25q-8 -11 -19.5 -25.5
t-25.5 -32.5q-83 -119 -178 -146q-84 -24 -163 16q-69 34 -115 103q4 -62 -16 -104q-17 -34 -46 -47q-31 -16 -71 -12q46 -27 139 -20q14 1 33 2.5t44 4.5q83 10 106 -2q13 -7 4 -29q-65 -146 -229 -212q-136 -55 -332 -47q-161 6 -318 54q-143 43 -190 95q-51 50 -42 97
q6 36 47 53q39 13 68 -13q44 -39 124 -83q101 -57 208 -86q124 -33 248 -30q137 3 233 52q51 25 89 66q-2 0 -9 -1t-19 -3q-71 -12 -148 -7q-96 7 -131 66q-19 32 -5 85q125 16 157 93q27 63 -16 129q-21 32 -102 125q-86 100 -108 136q-42 69 -3 96q32 20 54 7zM1855 743
q14 -15 -5 -29q-14 -9 -21 1q-6 6 -7 8q-3 5 -7 6q-27 19 -52 -21l-60 -109q2 1 4.5 2t6.5 2q6 1 12 6q-2 -4 -8.5 -9t-17.5 -10q-30 -64 -10 -123q21 -62 90 -76q54 -7 113 11q20 6 46.5 16t58.5 24q13 6 31 1q18 -4 26 -19q11 -21 -9 -44q-16 -17 -42 -28
q-133 -42 -238 -12q-83 29 -108 103q-23 69 16 145q-11 0 -23 5q-10 5 -8 3q-83 -90 -134 -116q-51 -21 -99 -12q-58 10 -66 61q-6 40 23 66q29 23 60 10q23 -5 17 -30q-7 -19 -32 -15q-30 7 -38 -17q-9 -25 11 -43q23 -18 59 -9q42 9 86 50q7 5 16 14.5t21 22.5

<glyph glyph-name="uniFEF5" unicode="&#xfedf;&#xfe82;" horiz-adv-x="888" arabic-form="isolated" 
d="M135 143h387q35 0 57.5 4.5t36 17.5t19 35t6.5 57v917h-68v146h215v-1096q-2 -109 -59 -165.5t-162 -58.5h-432v143zM355 205h-143v697h-67v144h210v-841zM100 1224q11 54 34 88q32 46 86 46q26 0 84 -29q45 -29 68 -29q17 0 26 9q15 15 21 46l78 -21q-9 -50 -34 -88
q-36 -46 -87 -46q-28 0 -82 29q-53 29 -69 29q-17 0 -26 -9q-15 -15 -22 -46z" />
    <glyph glyph-name="uniFEF6" unicode="&#xfee0;&#xfe82;" horiz-adv-x="989" arabic-form="final" 
d="M100 1224q11 54 34 88q32 46 86 46q26 0 84 -29q45 -29 68 -29q17 0 26 9q15 15 21 46l78 -21q-9 -50 -34 -88q-36 -46 -87 -46q-28 0 -82 29q-53 29 -69 29q-17 0 -26 -9q-15 -15 -22 -46zM989 0h-127q-91 1 -148 46q-54 -45 -147 -46h-432v143h387q35 0 57.5 4.5
t36 17.5t19 35t6.5 57v918h-68v146h215v-1064q1 -35 6.5 -57t19 -35t36 -17.5t57.5 -4.5h82v-143zM355 205h-143v698h-67v144h210v-842z" />
    <glyph glyph-name="uniFEF7" unicode="&#xfedf;&#xfe84;" horiz-adv-x="853" arabic-form="isolated" 
d="M100 143h387q35 0 57.5 4.5t36 17.5t19 35t6.5 57v917h-68v146h215v-1096q-2 -109 -59 -165.5t-162 -58.5h-432v143zM320 205h-143v697h-67v144h210v-841zM199 1351q3 -41 27.5 -64t61.5 -26h127v-61h-315v61h59q-26 37 -26 91v28q0 36 12.5 65t34.5 49t52.5 31t66.5 11
q26 0 52.5 -5t53.5 -13v-89h-66v34q-12 4 -23 5.5t-19 1.5q-44 0 -70.5 -25.5t-27.5 -74.5v-19z" />
    <glyph glyph-name="uniFEF8" unicode="&#xfee0;&#xfe84;" horiz-adv-x="954" arabic-form="final" 
d="M199 1351q3 -41 27.5 -64t61.5 -26h127v-61h-315v61h59q-26 37 -26 91v28q0 36 12.5 65t34.5 49t52.5 31t66.5 11q26 0 52.5 -5t53.5 -13v-89h-66v34q-12 4 -23 5.5t-19 1.5q-44 0 -70.5 -25.5t-27.5 -74.5v-19zM954 0h-127q-91 1 -148 46q-54 -45 -147 -46h-432v143h387
q35 0 57.5 4.5t36 17.5t19 35t6.5 57v918h-68v146h215v-1064q1 -35 6.5 -57t19 -35t36 -17.5t57.5 -4.5h82v-143zM320 205h-143v698h-67v144h210v-842z" />
    <glyph glyph-name="uniFEFB" unicode="&#xfedf;&#xfe8e;" horiz-adv-x="853" arabic-form="isolated" 
d="M100 143h387q35 0 57.5 4.5t36 17.5t19 35t6.5 57v917h-68v146h215v-1096q-2 -109 -59 -165.5t-162 -58.5h-432v143zM320 205h-143v697h-67v144h210v-841z" />
    <glyph glyph-name="uniFEFC" unicode="&#xfee0;&#xfe8e;" horiz-adv-x="954" arabic-form="final" 
d="M954 0h-127q-91 1 -148 46q-54 -45 -147 -46h-432v143h387q35 0 57.5 4.5t36 17.5t19 35t6.5 57v918h-68v146h215v-1064q1 -35 6.5 -57t19 -35t36 -17.5t57.5 -4.5h82v-143zM320 205h-143v698h-67v144h210v-842z" />
    <glyph glyph-name="uni064F_uni0651" unicode="&#x651;&#x64c;" 
d="M-218 374h7l164 53l-19 18q-29 23 -43 52.5t-19 64.5q-15 112 98 151l61 13q83 24 113 -59l71 -225l-376 -114v-52h-57v98zM-143 157l-23 -7l-15 53l77 20l56 -195l127 37l-62 219l56 17l62 -221q26 8 50.5 15t50.5 15q18 5 16.5 22.5t-6.5 37.5l-56 196l53 16l60 -204
q14 -55 -2.5 -83t-68.5 -43l-319 -90zM90 640q-5 16 -15 25t-29 3l-73 -16q-27 -9 -35.5 -31t-6.5 -50q4 -45 30.5 -68.5t62.5 -37.5q22 -8 40 -1l77 18z" />
    <glyph glyph-name="uni064C_uni0651" unicode="&#x651;&#x64f;" 
d="M-143 157l-23 -7l-15 53l77 20l56 -195l127 37l-62 219l56 17l62 -221q26 8 50.5 15t50.5 15q18 5 16.5 22.5t-6.5 37.5l-56 196l53 16l60 -204q14 -55 -2.5 -83t-68.5 -43l-319 -90zM-217 372l170 55q-7 6 -10.5 10t-8.5 8q-29 23 -43 52.5t-19 64.5q-15 112 98 151
l61 13q83 24 113 -59l71 -225l-410 -124zM90 640q-5 16 -15 25t-29 3l-73 -16q-27 -9 -35.5 -31t-6.5 -50q4 -45 30.5 -68.5t62.5 -37.5q22 -8 40 -1l77 18z" />
    <glyph glyph-name="uni064E_uni0651" unicode="&#x651;&#x64e;" 
d="M-143 157l-23 -7l-15 53l77 20l56 -195l127 37l-62 219l56 17l62 -221q26 8 50.5 15t50.5 15q18 5 16.5 22.5t-6.5 37.5l-56 196l53 16l60 -204q14 -55 -2.5 -83t-68.5 -43l-319 -90zM268 549l18 -47l-569 -208l-18 48z" />
    <glyph glyph-name="uni064B_uni0651" unicode="&#x651;&#x64b;" 
d="M-143 157l-23 -7l-15 53l77 20l56 -195l127 37l-62 219l56 17l62 -221q26 8 50.5 15t50.5 15q18 5 16.5 22.5t-6.5 37.5l-56 196l53 16l60 -204q14 -55 -2.5 -83t-68.5 -43l-319 -90zM271 534l16 -48l-579 -179l-16 49zM237 653l16 -48l-579 -179l-16 49z" />
    <glyph glyph-name="uni0650_uni0651" unicode="&#x651;&#x650;" 
d="M-143 157l-23 -7l-15 53l77 20l56 -195l127 37l-62 219l56 17l62 -221q26 8 50.5 15t50.5 15q18 5 16.5 22.5t-6.5 37.5l-56 196l53 16l60 -204q14 -55 -2.5 -83t-68.5 -43l-319 -90zM-146 -133l14 -49l583 163l-14 48z" />
    <glyph glyph-name="uni064D_uni0651" unicode="&#x651;&#x64d;" 
d="M-143 157l-23 -7l-15 53l77 20l56 -195l127 37l-62 219l56 17l62 -221q26 8 50.5 15t50.5 15q18 5 16.5 22.5t-6.5 37.5l-56 196l53 16l60 -204q14 -55 -2.5 -83t-68.5 -43l-319 -90zM-102 -262l16 -49l579 179l-16 48zM-136 -143l16 -49l579 179l-16 48z" />
    <glyph glyph-name="uni0651_uni0652" unicode="&#x651;&#x652;" 
d="M-143 157l-23 -7l-15 53l77 20l56 -195l127 37l-62 219l56 17l62 -221q26 8 50.5 15t50.5 15q18 5 16.5 22.5t-6.5 37.5l-56 196l53 16l60 -204q14 -55 -2.5 -83t-68.5 -43l-319 -90zM-69 372q-35 0 -66 13.5t-54.5 37t-37 54.5t-13.5 66t13.5 66.5t37 55t54.5 37
t66 13.5t66.5 -13.5t55 -37t37 -55t13.5 -66.5t-13.5 -66t-37 -54.5t-55 -37t-66.5 -13.5zM-69 647q-22 0 -40.5 -8.5t-32 -22t-22 -33t-8.5 -40.5t8.5 -39.5t22 -32.5t32 -22t40.5 -8q21 0 40 8t33 22t22 32.5t8 39.5q0 43 -30 73.5t-73 30.5z" />
    <glyph glyph-name="uni0625.fina" unicode="&#x625;" horiz-adv-x="525" arabic-form="final" 
d="M218 -338q3 -41 27.5 -64t61.5 -26h127v-61h-315v61h59q-26 37 -26 91v28q0 36 12.5 65t34.5 49t52.5 31t66.5 11q26 0 52.5 -5t53.5 -13v-89h-66v34q-12 4 -23 5.5t-19 1.5q-44 0 -70.5 -25.5t-27.5 -74.5v-19zM525 0h-204q-105 2 -162 58.5t-59 165.5v1097h215v-146
h-68v-918q1 -35 6.5 -57t19 -35t36 -17.5t57.5 -4.5h159v-143z" />
    <glyph glyph-name="uni0629.fina" unicode="&#x629;" horiz-adv-x="1116" arabic-form="final" 
d="M916 696v-553h200v-143h-770q-229 5 -243 210q-2 35 -2 83.5t1.5 99.5t4.5 99t8 83q15 97 71 162.5t153 92.5q117 32 226 10.5t206 -102.5v101h213v-143h-68zM772 531q0 20 -26 47.5t-66 53.5t-89 45.5t-95 23.5q-122 7 -180 -49.5t-66 -187.5v-188q0 -41 5 -67t19 -40.5
t39 -20t66 -5.5h393v388zM322 1152h148v-149h-148v149zM548 1152h148v-149h-148v149z" />
    <glyph glyph-name="uniFB51" unicode="&#x671;" horiz-adv-x="563" arabic-form="final" 
d="M563 143h-159q-35 0 -57.5 4.5t-36 17.5t-19 35t-6.5 57v920h68v146h-215v-1099q2 -109 59 -165.5t162 -58.5h204v143zM100 1463h84v121h-20v44h65v-33q15 16 35.5 29t42 22.5t41 16t31.5 9.5q39 6 80 -2q35 -8 56.5 -35.5t22.5 -65.5q1 -18 1 -26.5v-15v-15t-1 -25.5
q0 -34 -16.5 -49.5t-50.5 -17.5h-371v43zM441 1627q-35 7 -72 -6t-68.5 -32.5t-51.5 -37.5t-20 -20v-68h239q26 0 26 28q0 16 0.5 23.5t0.5 12.5t-0.5 12t-0.5 24q-3 54 -53 64z" />
    <glyph glyph-name="uniFB57" unicode="&#x67e;" horiz-adv-x="1929" arabic-form="final" 
d="M1929 0h-125q-91 1 -148 46q-54 -45 -147 -46h-1036q-75 1 -137.5 23.5t-109.5 64t-77 101.5t-41 135q-8 57 -7 115t12 115q15 81 46.5 151t79.5 133l125 -88q-48 -63 -77 -134.5t-39 -159.5q-15 -147 52.5 -228.5t214.5 -84.5h949q35 0 57.5 4.5t36 17.5t19 35t6.5 57
v436h-68v146h215v-582q1 -35 6.5 -57t19 -35t36 -17.5t57.5 -4.5h80v-143zM1173 -291h-148v149h148v-149zM947 -291h-148v149h148v-149zM1061 -497h-148v149h148v-149z" />
    <glyph glyph-name="uniFB58" unicode="&#x67e;" horiz-adv-x="633" arabic-form="initial" 
d="M-10 143h277q35 0 57.5 4.5t36 17.5t19 35t6.5 57v436h-68v146h215v-615q-2 -109 -59 -165.5t-162 -58.5h-322v143zM467 -291h-148v149h148v-149zM241 -291h-148v149h148v-149zM355 -497h-148v149h148v-149z" />
    <glyph glyph-name="uniFB59" unicode="&#x67e;" horiz-adv-x="634" arabic-form="medial" 
d="M634 0h-138q-91 1 -148 46q-54 -45 -147 -46h-211v143h166q35 0 57.5 4.5t36 17.5t19 35t6.5 57v494h147v-494q1 -35 6.5 -57t19 -35t36 -17.5t57.5 -4.5h93v-143zM521 -291h-148v149h148v-149zM295 -291h-148v149h148v-149zM409 -497h-148v149h148v-149z" />
    <glyph glyph-name="uniFB67" unicode="&#x679;" horiz-adv-x="1929" arabic-form="final" 
d="M1929 143h-80q-35 0 -57.5 4.5t-36 17.5t-19 35t-6.5 57v582h-215v-146h68v-436q-1 -35 -6.5 -57t-19 -35t-36 -17.5t-57.5 -4.5h-949q-147 3 -214.5 84.5t-52.5 228.5q10 88 39 159.5t77 134.5l-125 88q-48 -63 -79.5 -133t-46.5 -151q-11 -57 -12 -115t7 -115
q11 -75 41 -135t77 -101.5t109.5 -64t137.5 -23.5h1036q93 1 147 46q57 -45 148 -46h125v143zM677 883h84v121h-20v44h65v-33q15 16 35.5 29t42 22.5t41 16t31.5 9.5q39 6 80 -2q35 -8 56.5 -35.5t22.5 -65.5q1 -18 1 -26.5v-15v-15t-1 -25.5q0 -34 -16.5 -49.5t-50.5 -17.5
h-371v43zM1018 1047q-35 7 -72 -6t-68.5 -32.5t-51.5 -37.5t-20 -20v-68h239q26 0 26 28q0 16 0.5 23.5t0.5 12.5t-0.5 12t-0.5 24q-3 54 -53 64z" />
    <glyph glyph-name="uniFB68" unicode="&#x679;" horiz-adv-x="633" arabic-form="initial" 
d="M77 1045h84v121h-20v44h65v-33q15 16 35.5 29t42 22.5t41 16t31.5 9.5q39 6 80 -2q35 -8 56.5 -35.5t22.5 -65.5q1 -18 1 -26.5v-15v-15t-1 -25.5q0 -34 -16.5 -49.5t-50.5 -17.5h-371v43zM418 1209q-35 7 -72 -6t-68.5 -32.5t-51.5 -37.5t-20 -20v-68h239q26 0 26 28
q0 16 0.5 23.5t0.5 12.5t-0.5 12t-0.5 24q-3 54 -53 64zM-10 143h277q35 0 57.5 4.5t36 17.5t19 35t6.5 57v436h-68v146h215v-615q-2 -109 -59 -165.5t-162 -58.5h-322v143z" />
    <glyph glyph-name="uniFB69" unicode="&#x679;" horiz-adv-x="634" arabic-form="medial" 
d="M118 1046h84v121h-20v44h65v-33q15 16 35.5 29t42 22.5t41 16t31.5 9.5q39 6 80 -2q35 -8 56.5 -35.5t22.5 -65.5q1 -18 1 -26.5v-15v-15t-1 -25.5q0 -34 -16.5 -49.5t-50.5 -17.5h-371v43zM459 1210q-35 7 -72 -6t-68.5 -32.5t-51.5 -37.5t-20 -20v-68h239q26 0 26 28
q0 16 0.5 23.5t0.5 12.5t-0.5 12t-0.5 24q-3 54 -53 64zM634 0h-138q-91 1 -148 46q-54 -45 -147 -46h-211v143h166q35 0 57.5 4.5t36 17.5t19 35t6.5 57v494h147v-494q1 -35 6.5 -57t19 -35t36 -17.5t57.5 -4.5h93v-143z" />
    <glyph glyph-name="uniFB6B" unicode="&#x6a4;" horiz-adv-x="1790" arabic-form="final" 
d="M473 0q-75 1 -137.5 23.5t-109.5 64t-77 101.5t-41 135q-8 57 -7 115t12 115q15 81 46.5 151t79.5 133l125 -88q-48 -63 -77 -134.5t-39 -159.5q-15 -147 52.5 -228.5t214.5 -84.5h273q-11 30 -12 67q-2 35 -2 83.5t1.5 99.5t4.5 99t8 83q15 97 71 162.5t153 92.5
q117 32 226 10.5t206 -102.5v101h213v-143h-68v-553h201v-143h-1317zM1445 531q0 20 -26 47.5t-66 53.5t-89 45.5t-95 23.5q-122 7 -180 -49.5t-66 -187.5v-188q0 -41 4.5 -66.5t17.5 -40t37 -20t62 -6.5h401v388zM952 1152h148v-149h-148v149zM1178 1152h148v-149h-148v149
zM1064 1358h148v-149h-148v149z" />
    <glyph glyph-name="uniFB6C" unicode="&#x6a4;" horiz-adv-x="1058" arabic-form="initial" 
d="M-10 143h611q41 0 68.5 7t44 20t23.5 31.5t7 41.5h-66q-91 0 -180.5 -0.5t-179.5 0.5q-112 2 -172.5 52.5t-67.5 153.5q-4 69 -5.5 138t9.5 138q15 97 74.5 163t156.5 93q103 29 198.5 17.5t185.5 -74.5l41 -30v99h220v-144h-66v-615q-1 -109 -48.5 -168t-153.5 -66h-700
v143zM738 668q-31 81 -102 129t-164 55q-123 8 -183.5 -47.5t-62.5 -187.5l-1 -92q-1 -42 4 -68t19.5 -40.5t40 -20t66.5 -6.5h383v278zM287 1252h148v-149h-148v149zM513 1252h148v-149h-148v149zM399 1458h148v-149h-148v149z" />
    <glyph glyph-name="uniFB6D" unicode="&#x6a4;" horiz-adv-x="1215" arabic-form="medial" 
d="M-10 143h95q-11 30 -12 67q-2 35 -2 83.5t1.5 99.5t4.5 99t8 83q15 97 71 162.5t153 92.5q117 32 226 10.5t206 -102.5v101h213v-143h-68v-553h329v-143h-1225v143zM742 531q0 20 -26 47.5t-66 53.5t-89 45.5t-95 23.5q-122 7 -180 -49.5t-66 -187.5v-188
q0 -41 4.5 -66.5t17.5 -40t37 -20t62 -6.5h401v388zM292 1152h148v-149h-148v149zM518 1152h148v-149h-148v149zM404 1358h148v-149h-148v149z" />
    <glyph glyph-name="uniFB7B" unicode="&#x686;" horiz-adv-x="1259" arabic-form="final" 
d="M597 833q98 13 181.5 -6t145 -66t97 -119.5t37.5 -165.5v-333h201v-143h-744q-147 -4 -214.5 -82.5t-51.5 -225.5q7 -70 30.5 -133.5t60 -120t84.5 -106t104 -91.5q-23 -32 -44.5 -61t-45.5 -59q-62 46 -115.5 97.5t-95.5 110t-71 124.5t-43 143q-11 57 -12 115t7 115
q23 153 117.5 234t247.5 83h430v312q-1 66 -24 114t-63 76.5t-94.5 37t-118.5 -4.5q-43 -9 -94 -26t-98 -36t-85.5 -36.5t-56.5 -27.5l-62 143q85 51 186 87.5t204 50.5zM908 -291h-148v149h148v-149zM682 -291h-148v149h148v-149zM796 -497h-148v149h148v-149z" />
    <glyph glyph-name="uniFB7C" unicode="&#x686;" horiz-adv-x="1127" arabic-form="initial" 
d="M566 833q98 13 181.5 -6t145 -66t97 -119.5t37.5 -165.5v-476h-1037l1 143h881v312q-1 66 -24 114t-63 76.5t-94.5 37t-118.5 -4.5q-43 -9 -94 -26t-98 -36t-85.5 -36.5t-56.5 -27.5l-62 143q85 51 186 87.5t204 50.5zM702 -291h-148v149h148v-149zM476 -291h-148v149
h148v-149zM590 -497h-148v149h148v-149z" />
    <glyph glyph-name="uniFB7D" unicode="&#x686;" horiz-adv-x="1228" arabic-form="medial" 
d="M-9 143h881v312q-1 66 -24 114t-63 76.5t-94.5 37t-118.5 -4.5q-43 -9 -94 -26t-98 -36t-85.5 -36.5t-56.5 -27.5l-62 143q85 51 186 87.5t204 50.5q98 13 181.5 -6t145 -66t97 -119.5t37.5 -165.5v-333h201v-143h-1238zM701 -291h-148v149h148v-149zM475 -291h-148v149
h148v-149zM589 -497h-148v149h148v-149z" />
    <glyph glyph-name="uniFB89" unicode="&#x688;" horiz-adv-x="1179" arabic-form="final" 
d="M143 646v193h579q134 0 195.5 -61t61.5 -194v-441h200v-143h-1079v143h732v415q-1 41 -6.5 67t-20 40.5t-39.5 19.5t-66 5h-408v-44h-149zM233 1045h84v121h-20v44h65v-33q15 16 35.5 29t42 22.5t41 16t31.5 9.5q39 6 80 -2q35 -8 56.5 -35.5t22.5 -65.5q1 -18 1 -26.5
v-15v-15t-1 -25.5q0 -34 -16.5 -49.5t-50.5 -17.5h-371v43zM574 1209q-35 7 -72 -6t-68.5 -32.5t-51.5 -37.5t-20 -20v-68h239q26 0 26 28q0 16 0.5 23.5t0.5 12.5t-0.5 12t-0.5 24q-3 54 -53 64z" />
    <glyph glyph-name="uniFB8B" unicode="&#x698;" horiz-adv-x="780" arabic-form="final" 
d="M0 -464q5 42 10 73.5t11 70.5q25 -9 53.5 -14.5t55.5 -9.5q302 -33 302 266v773h-68v144h216v-696h200v-143h-200v-104q0 -97 -27 -170t-78 -122t-124.5 -73.5t-166.5 -24.5q-45 0 -93.5 6t-90.5 24zM273 1152h148v-149h-148v149zM499 1152h148v-149h-148v149zM385 1358
h148v-149h-148v149z" />
    <glyph glyph-name="uniFB8D" unicode="&#x691;" horiz-adv-x="780" arabic-form="final" 
d="M0 -464q5 42 10 73.5t11 70.5q25 -9 53.5 -14.5t55.5 -9.5q302 -33 302 266v773h-68v144h216v-696h200v-143h-200v-104q0 -97 -27 -170t-78 -122t-124.5 -73.5t-166.5 -24.5q-45 0 -93.5 6t-90.5 24zM242 1043h84v121h-20v44h65v-33q15 16 35.5 29t42 22.5t41 16
t31.5 9.5q39 6 80 -2q35 -8 56.5 -35.5t22.5 -65.5q1 -18 1 -26.5v-15v-15t-1 -25.5q0 -34 -16.5 -49.5t-50.5 -17.5h-371v43zM583 1207q-35 7 -72 -6t-68.5 -32.5t-51.5 -37.5t-20 -20v-68h239q26 0 26 28q0 16 0.5 23.5t0.5 12.5t-0.5 12t-0.5 24q-3 54 -53 64z" />
    <glyph glyph-name="uniFB8F" unicode="&#x6a9;" horiz-adv-x="1713" arabic-form="final" 
d="M1713 0h-128q-91 1 -148 46q-54 -45 -147 -46h-817q-75 1 -137.5 23.5t-109.5 64t-77 101.5t-41 135q-8 57 -7 115t12 115q16 82 48.5 152.5t80.5 133.5l123 -88q-48 -63 -77.5 -135.5t-39.5 -160.5q-15 -147 52.5 -228.5t214.5 -84.5h730q35 0 57.5 4.5t36 17.5t19 35
t6.5 57v918h-68v146h215v-1064q1 -35 6.5 -57t19 -35t36 -17.5t57.5 -4.5h83v-143zM926 685v34q-30 3 -53 2t-38 -9.5t-23 -27t-8 -51.5v-84h226v-115h-378v115h35v95q1 51 20.5 90t52.5 64.5t78 35.5t98 3q13 -2 33 -5.5t58 -16.5v-130h-101z" />
    <glyph glyph-name="uniFB90" unicode="&#x6a9;" horiz-adv-x="1320" arabic-form="initial" 
d="M1072 143v245q0 41 -5.5 67t-20 40.5t-40.5 19.5t-66 5h-779l-91 109l686 565l-33 39l111 93l125 -148l-619 -509h622q134 0 195.5 -61t62.5 -194l-1 -414h-1229v143h1082z" />
    <glyph glyph-name="uniFB91" unicode="&#x6a9;" horiz-adv-x="1419" arabic-form="medial" 
d="M1072 143v245q0 41 -5.5 67t-20 40.5t-40.5 19.5t-66 5h-779l-91 109l686 563l-33 39l111 93l125 -148l-619 -507h622q134 0 195 -61t62 -194v-271h200v-143h-1429v143h1082z" />
    <glyph glyph-name="uniFB93" unicode="&#x6af;" horiz-adv-x="1713" arabic-form="final" 
d="M500 939l-24 63l520 326l9 -72zM1713 0h-128q-91 1 -148 46q-54 -45 -147 -46h-817q-75 1 -137.5 23.5t-109.5 64t-77 101.5t-41 135q-8 57 -7 115t12 115q16 82 48.5 152.5t80.5 133.5l123 -88q-48 -63 -77.5 -135.5t-39.5 -160.5q-15 -147 52.5 -228.5t214.5 -84.5h730
q35 0 57.5 4.5t36 17.5t19 35t6.5 57v1021h-68v146h215v-1167q1 -35 6.5 -57t19 -35t36 -17.5t57.5 -4.5h83v-143zM926 685v34q-30 3 -53 2t-38 -9.5t-23 -27t-8 -51.5v-84h226v-115h-378v115h35v95q1 51 20.5 90t52.5 64.5t78 35.5t98 3q13 -2 33 -5.5t58 -16.5v-130h-101z
" />
    <glyph glyph-name="uniFB94" unicode="&#x6af;" horiz-adv-x="1320" arabic-form="initial" 
d="M145 1136l-24 63l520 326l9 -72zM1072 143v245q0 41 -5.5 67t-20 40.5t-40.5 19.5t-66 5h-779l-91 109l686 565l-33 39l111 93l125 -148l-619 -509h622q134 0 195.5 -61t62.5 -194l-1 -414h-1229v143h1082z" />
    <glyph glyph-name="uniFB95" unicode="&#x6af;" horiz-adv-x="1419" arabic-form="medial" 
d="M145 1136l-24 63l520 326l9 -72zM1072 143v245q0 41 -5.5 67t-20 40.5t-40.5 19.5t-66 5h-779l-91 109l686 563l-33 39l111 93l125 -148l-619 -507h622q134 0 195 -61t62 -194v-271h200v-143h-1429v143h1082z" />
    <glyph glyph-name="uniFC63" unicode="&#xfc63;" arabic-form="isolated" 
d="M-143 157l-23 -7l-15 53l77 20l56 -195l127 37l-62 219l56 17l62 -221q26 8 50.5 15t50.5 15q18 5 16.5 22.5t-6.5 37.5l-56 196l53 16l60 -204q14 -55 -2.5 -83t-68.5 -43l-319 -90zM24 392l-57 -8l-57 387l-27 -4l-8 57l84 13z" />
    <glyph glyph-name="uniFE82" unicode="&#x622;" horiz-adv-x="575" arabic-form="final" 
d="M100 1489q7 40 26 68q24 35 67 35q22 0 63 -22q37 -22 53 -22q12 0 20 6q11 11 16 36l60 -16q-7 -40 -26 -68q-27 -35 -67 -35q-22 0 -63 22q-20 11 -33.5 16.5t-19.5 5.5q-13 0 -20 -6q-11 -11 -17 -36zM575 0h-204q-105 2 -162 58.5t-59 165.5v1097h215v-146h-68v-918
q1 -35 6.5 -57t19 -35t36 -17.5t57.5 -4.5h159v-143z" />
    <glyph glyph-name="uniFE84" unicode="&#x623;" horiz-adv-x="562" arabic-form="final" 
d="M199 1627q3 -41 27.5 -64t61.5 -26h127v-61h-315v61h59q-26 37 -26 91v28q0 36 12.5 65t34.5 49t52.5 31t66.5 11q26 0 52.5 -5t53.5 -13v-89h-66v34q-12 4 -23 5.5t-19 1.5q-44 0 -70.5 -25.5t-27.5 -74.5v-19zM562 0h-204q-105 2 -162 58.5t-59 165.5v1097h215v-146
h-68v-918q1 -35 6.5 -57t19 -35t36 -17.5t57.5 -4.5h159v-143z" />
    <glyph glyph-name="uniFE86" unicode="&#x624;" horiz-adv-x="1116" arabic-form="final" 
d="M772 0h-426q-229 5 -243 210q-2 35 -2 83.5t1.5 99.5t4.5 99t8 83q15 97 71 162.5t153 92.5q117 32 226 10.5t206 -102.5v101h213v-143h-68v-553h200v-143h-200v-128q-2 -92 -36 -163t-93.5 -118.5t-141.5 -68t-179 -10.5q-45 5 -84.5 13.5t-81.5 22.5l16 150
q13 -5 42.5 -11.5t62.5 -12.5t63 -10.5t45 -4.5q118 2 176 56.5t67 171.5v113zM772 531q0 20 -26 47.5t-66 53.5t-89 45.5t-95 23.5q-122 7 -180 -49.5t-66 -187.5v-188q0 -41 5 -67t19 -40.5t39 -20t66 -5.5h393v388zM465 1241q3 -41 27.5 -64t61.5 -26h127v-61h-315v61h59
q-26 37 -26 91v28q0 36 12.5 65t34.5 49t52.5 31t66.5 11q26 0 52.5 -5t53.5 -13v-89h-66v34q-12 4 -23 5.5t-19 1.5q-44 0 -70.5 -25.5t-27.5 -74.5v-19z" />
    <glyph glyph-name="uniFE8A" unicode="&#x626;" horiz-adv-x="1469" arabic-form="final" 
d="M218 839q3 -41 27.5 -64t61.5 -26h127v-61h-315v61h59q-26 37 -26 91v28q0 36 12.5 65t34.5 49t52.5 31t66.5 11q26 0 52.5 -5t53.5 -13v-89h-66v34q-12 4 -23 5.5t-19 1.5q-44 0 -70.5 -25.5t-27.5 -74.5v-19zM786 143h683v-143h-149q-2 -38 -6 -77q-11 -75 -41 -135
t-77 -101.5t-109.5 -64t-137.5 -23.5h-479q-75 1 -138 23.5t-111 64t-79 101.5t-42 135v586h215v-146h-68v-396q10 -113 78.5 -168t186.5 -57h395q119 2 188 58t78 172v5l-2 23h-385v143z" />
    <glyph glyph-name="uniFE8B" unicode="&#x626;" horiz-adv-x="534" arabic-form="initial" 
d="M-10 143h159q35 0 57.5 4.5t36 17.5t19 35t6.5 57v436h-68v146h215v-615q-2 -109 -59 -165.5t-162 -58.5h-204v143zM218 1154q3 -41 27.5 -64t61.5 -26h127v-61h-315v61h59q-26 37 -26 91v28q0 36 12.5 65t34.5 49t52.5 31t66.5 11q26 0 52.5 -5t53.5 -13v-89h-66v34
q-12 4 -23 5.5t-19 1.5q-44 0 -70.5 -25.5t-27.5 -74.5v-19z" />
    <glyph glyph-name="uniFE8C" unicode="&#x626;" horiz-adv-x="559" arabic-form="medial" 
d="M559 0h-138q-91 1 -148 46q-54 -45 -147 -46h-136v143h91q35 0 57.5 4.5t36 17.5t19 35t6.5 57v494h147v-494q1 -35 6.5 -57t19 -35t36 -17.5t57.5 -4.5h93v-143zM218 1154q3 -41 27.5 -64t61.5 -26h127v-61h-315v61h59q-26 37 -26 91v28q0 36 12.5 65t34.5 49t52.5 31
t66.5 11q26 0 52.5 -5t53.5 -13v-89h-66v34q-12 4 -23 5.5t-19 1.5q-44 0 -70.5 -25.5t-27.5 -74.5v-19z" />
    <glyph glyph-name="uniFE8E" unicode="&#x627;" horiz-adv-x="525" arabic-form="final" 
d="M525 0h-204q-105 2 -162 58.5t-59 165.5v1097h215v-146h-68v-918q1 -35 6.5 -57t19 -35t36 -17.5t57.5 -4.5h159v-143z" />
    <glyph glyph-name="uniFE90" unicode="&#x628;" horiz-adv-x="1929" arabic-form="final" 
d="M1929 0h-125q-91 1 -148 46q-54 -45 -147 -46h-1036q-75 1 -137.5 23.5t-109.5 64t-77 101.5t-41 135q-8 57 -7 115t12 115q15 81 46.5 151t79.5 133l125 -88q-48 -63 -77 -134.5t-39 -159.5q-15 -147 52.5 -228.5t214.5 -84.5h949q35 0 57.5 4.5t36 17.5t19 35t6.5 57
v436h-68v146h215v-582q1 -35 6.5 -57t19 -35t36 -17.5t57.5 -4.5h80v-143zM872 -146h148v-149h-148v149z" />
    <glyph glyph-name="uniFE91" unicode="&#x628;" horiz-adv-x="515" arabic-form="initial" 
d="M-10 143h159q35 0 57.5 4.5t36 17.5t19 35t6.5 57v436h-68v146h215v-615q-2 -109 -59 -165.5t-162 -58.5h-204v143zM147 -146h148v-149h-148v149z" />
    <glyph glyph-name="uniFE92" unicode="&#x628;" horiz-adv-x="559" arabic-form="medial" 
d="M559 0h-138q-91 1 -148 46q-54 -45 -147 -46h-136v143h91q35 0 57.5 4.5t36 17.5t19 35t6.5 57v494h147v-494q1 -35 6.5 -57t19 -35t36 -17.5t57.5 -4.5h93v-143zM192 -146h148v-149h-148v149z" />
    <glyph glyph-name="uniFE96" unicode="&#x62a;" horiz-adv-x="1929" arabic-form="final" 
d="M1929 0h-125q-91 1 -148 46q-54 -45 -147 -46h-1036q-75 1 -137.5 23.5t-109.5 64t-77 101.5t-41 135q-8 57 -7 115t12 115q15 81 46.5 151t79.5 133l125 -88q-48 -63 -77 -134.5t-39 -159.5q-15 -147 52.5 -228.5t214.5 -84.5h949q35 0 57.5 4.5t36 17.5t19 35t6.5 57
v436h-68v146h215v-582q1 -35 6.5 -57t19 -35t36 -17.5t57.5 -4.5h80v-143zM761 988h148v-149h-148v149zM987 988h148v-149h-148v149z" />
    <glyph glyph-name="uniFE97" unicode="&#x62a;" horiz-adv-x="633" arabic-form="initial" 
d="M-10 143h277q35 0 57.5 4.5t36 17.5t19 35t6.5 57v436h-68v146h215v-615q-2 -109 -59 -165.5t-162 -58.5h-322v143zM142 1152h148v-149h-148v149zM368 1152h148v-149h-148v149z" />
    <glyph glyph-name="uniFE98" unicode="&#x62a;" horiz-adv-x="634" arabic-form="medial" 
d="M141 1152h148v-149h-148v149zM367 1152h148v-149h-148v149zM634 0h-166q-91 1 -148 46q-54 -45 -147 -46h-183v143h138q35 0 57.5 4.5t36 17.5t19 35t6.5 57v494h147v-494q1 -35 6.5 -57t19 -35t36 -17.5t57.5 -4.5h121v-143z" />
    <glyph glyph-name="uniFE9A" unicode="&#x62b;" horiz-adv-x="1929" arabic-form="final" 
d="M1929 0h-125q-91 1 -148 46q-54 -45 -147 -46h-1036q-75 1 -137.5 23.5t-109.5 64t-77 101.5t-41 135q-8 57 -7 115t12 115q15 81 46.5 151t79.5 133l125 -88q-48 -63 -77.5 -134.5t-38.5 -159.5q-16 -147 52 -228.5t215 -84.5h949q35 0 57.5 4.5t36 17.5t19 35t6.5 57
v436h-68v146h215v-582q1 -35 6.5 -57t19 -35t36 -17.5t57.5 -4.5h80v-143zM761 988h148v-149h-148v149zM987 988h148v-149h-148v149zM873 1194h148v-149h-148v149z" />
    <glyph glyph-name="uniFE9B" unicode="&#x62b;" horiz-adv-x="633" arabic-form="initial" 
d="M-10 143h277q35 0 57.5 4.5t36 17.5t19 35t6.5 57v436h-68v146h215v-615q-2 -109 -59 -165.5t-162 -58.5h-322v143zM118 1152h148v-149h-148v149zM344 1152h148v-149h-148v149zM230 1358h148v-149h-148v149z" />
    <glyph glyph-name="uniFE9C" unicode="&#x62b;" horiz-adv-x="634" arabic-form="medial" 
d="M145 1152h148v-149h-148v149zM371 1152h148v-149h-148v149zM257 1358h148v-149h-148v149zM634 0h-166q-91 1 -148 46q-54 -45 -147 -46h-183v143h138q35 0 57.5 4.5t36 17.5t19 35t6.5 57v494h147v-494q1 -35 6.5 -57t19 -35t36 -17.5t57.5 -4.5h121v-143z" />
    <glyph glyph-name="uniFE9E" unicode="&#x62c;" horiz-adv-x="1259" arabic-form="final" 
d="M597 833q98 13 181.5 -6t145 -66t97 -119.5t37.5 -165.5v-333h201v-143h-744q-147 -4 -214.5 -82.5t-51.5 -225.5q9 -90 44.5 -168.5t90.5 -145.5l-126 -90q-54 66 -91 141.5t-54 166.5q-11 57 -12 115t7 115q23 153 117.5 234t247.5 83h430v312q-1 66 -24 114t-63 76.5
t-94.5 37t-118.5 -4.5q-43 -9 -94 -26t-98 -36t-85.5 -36.5t-56.5 -27.5l-62 143q85 51 186 87.5t204 50.5zM614 -152h142v-143h-142v143z" />
    <glyph glyph-name="uniFE9F" unicode="&#x62c;" horiz-adv-x="1017" arabic-form="initial" 
d="M456 833q98 13 181.5 -6t145 -66t97 -119.5t37.5 -165.5v-476h-927l1 143h771v312q-1 66 -24 114t-63 76.5t-94.5 37t-118.5 -4.5q-43 -9 -94 -26t-98 -36t-85.5 -36.5t-56.5 -27.5l-62 143q85 51 186 87.5t204 50.5zM481 -152h142v-143h-142v143z" />
    <glyph glyph-name="uniFEA0" unicode="&#x62c;" horiz-adv-x="1128" arabic-form="medial" 
d="M-9 143h781v312q-1 66 -24 114t-63 76.5t-94.5 37t-118.5 -4.5q-43 -9 -94 -26t-98 -36t-85.5 -36.5t-56.5 -27.5l-62 143q85 51 186 87.5t204 50.5q98 13 181.5 -6t145 -66t97 -119.5t37.5 -165.5v-333h201v-143h-1138zM496 -152h142v-143h-142v143z" />
    <glyph glyph-name="uniFEA2" unicode="&#x62d;" horiz-adv-x="1259" arabic-form="final" 
d="M597 833q98 13 181.5 -6t145 -66t97 -119.5t37.5 -165.5v-333h201v-143h-744q-147 -4 -214.5 -82.5t-51.5 -225.5q9 -90 44.5 -168.5t90.5 -145.5l-126 -90q-54 66 -91 141.5t-54 166.5q-11 57 -12 115t7 115q23 153 117.5 234t247.5 83h430v312q-1 66 -24 114t-63 76.5
t-94.5 37t-118.5 -4.5q-43 -9 -94 -26t-98 -36t-85.5 -36.5t-56.5 -27.5l-62 143q85 51 186 87.5t204 50.5z" />
    <glyph glyph-name="uniFEA3" unicode="&#x62d;" horiz-adv-x="1021" arabic-form="initial" 
d="M460 833q98 13 181.5 -6t145 -66t97 -119.5t37.5 -165.5v-476h-931l1 143h775v312q-1 66 -24 114t-63 76.5t-94.5 37t-118.5 -4.5q-43 -9 -94 -26t-98 -36t-85.5 -36.5t-56.5 -27.5l-62 143q85 51 186 87.5t204 50.5z" />
    <glyph glyph-name="uniFEA4" unicode="&#x62d;" horiz-adv-x="1130" arabic-form="medial" 
d="M-9 143h783v312q-1 66 -24 114t-63 76.5t-94.5 37t-118.5 -4.5q-43 -9 -94 -26t-98 -36t-85.5 -36.5t-56.5 -27.5l-62 143q85 51 186 87.5t204 50.5q98 13 181.5 -6t145 -66t97 -119.5t37.5 -165.5v-333h201v-143h-1140z" />
    <glyph glyph-name="uniFEA6" unicode="&#x62e;" horiz-adv-x="1259" arabic-form="final" 
d="M597 833q98 13 181.5 -6t145 -66t97 -119.5t37.5 -165.5v-333h201v-143h-744q-147 -4 -214.5 -82.5t-51.5 -225.5q9 -90 44.5 -168.5t90.5 -145.5l-126 -90q-54 66 -91 141.5t-54 166.5q-11 57 -12 115t7 115q23 153 117.5 234t247.5 83h430v312q-1 66 -24 114t-63 76.5
t-94.5 37t-118.5 -4.5q-43 -9 -94 -26t-98 -36t-85.5 -36.5t-56.5 -27.5l-62 143q85 51 186 87.5t204 50.5zM432 1152h148v-149h-148v149z" />
    <glyph glyph-name="uniFEA7" unicode="&#x62e;" horiz-adv-x="1027" arabic-form="initial" 
d="M466 833q98 13 181.5 -6t145 -66t97 -119.5t37.5 -165.5v-476h-937l1 143h781v312q-1 66 -24 114t-63 76.5t-94.5 37t-118.5 -4.5q-43 -9 -94 -26t-98 -36t-85.5 -36.5t-56.5 -27.5l-62 143q85 51 186 87.5t204 50.5zM290 1152h148v-149h-148v149z" />
    <glyph glyph-name="uniFEA8" unicode="&#x62e;" horiz-adv-x="1129" arabic-form="medial" 
d="M-9 143h782v312q-1 66 -24 114t-63 76.5t-94.5 37t-118.5 -4.5q-43 -9 -94 -26t-98 -36t-85.5 -36.5t-56.5 -27.5l-62 143q85 51 186 87.5t204 50.5q98 13 181.5 -6t145 -66t97 -119.5t37.5 -165.5v-333h201v-143h-1139zM290 1152h148v-149h-148v149z" />
    <glyph glyph-name="uniFEAA" unicode="&#x62f;" horiz-adv-x="1179" arabic-form="final" 
d="M143 646v193h579q134 0 195.5 -61t61.5 -194v-441h200v-143h-1079v143h732v415q-1 41 -6.5 67t-20 40.5t-39.5 19.5t-66 5h-408v-44h-149z" />
    <glyph glyph-name="uniFEAC" unicode="&#x630;" horiz-adv-x="1179" arabic-form="final" 
d="M143 646v193h579q134 0 195.5 -61t61.5 -194v-441h200v-143h-1079v143h732v415q-1 41 -6.5 67t-20 40.5t-39.5 19.5t-66 5h-408v-44h-149zM268 1152h148v-149h-148v149z" />
    <glyph glyph-name="uniFEAE" unicode="&#x631;" horiz-adv-x="780" arabic-form="final" 
d="M0 -464q5 42 10 73.5t11 70.5q25 -9 53.5 -14.5t55.5 -9.5q302 -33 302 266v773h-68v144h216v-696h200v-143h-200v-104q0 -97 -27 -170t-78 -122t-124.5 -73.5t-166.5 -24.5q-45 0 -93.5 6t-90.5 24z" />
    <glyph glyph-name="uniFEB0" unicode="&#x632;" horiz-adv-x="780" arabic-form="final" 
d="M0 -464q5 42 10 73.5t11 70.5q25 -9 53.5 -14.5t55.5 -9.5q302 -33 302 266v773h-68v144h216v-696h200v-143h-200v-104q0 -97 -27 -170t-78 -122t-124.5 -73.5t-166.5 -24.5q-45 0 -93.5 6t-90.5 24zM432 1152h148v-149h-148v149z" />
    <glyph glyph-name="uniFEB2" unicode="&#x633;" horiz-adv-x="2243" arabic-form="final" 
d="M2243 0h-126q-94 1 -151 49q-32 -26 -81 -37.5t-115 -11.5h-736v-149.5t-2 -119.5q-2 -109 -58.5 -165.5t-161.5 -56.5h-339q-75 1 -137.5 23.5t-109.5 64t-77 101t-41 134.5q-9 55 -7.5 114t12.5 116q11 60 30.5 113t48.5 101l126 -85q-56 -102 -70 -226
q-15 -147 52.5 -226t214.5 -83h253q34 0 56.5 5t36 18t19.5 35t7 56v772h-68v145h215v-544h355v615h152v-615h144t138 1q26 1 40 14.5t21 34.5t8 47.5t1 53.5v545h150v-567v-15q1 -35 6.5 -57t19 -35t36 -17.5t57.5 -4.5h81v-143z" />
    <glyph glyph-name="uniFEB3" unicode="&#x633;" horiz-adv-x="1524" arabic-form="initial" 
d="M-10 143h278v399h-68v145h215v-544h355v615h152v-615h144t138 1q26 1 40 14.5t21 34.5t8 47.5t1 53.5v545h150v-567q0 -74 -15 -126t-47.5 -84.5t-84.5 -47t-126 -14.5h-1161v143z" />
    <glyph glyph-name="uniFEB4" unicode="&#x633;" horiz-adv-x="1497" arabic-form="medial" 
d="M1497 0h-126q-94 1 -151 49q-32 -26 -81 -37.5t-115 -11.5h-1034v143h151v399h-68v145h215v-544h355v615h152v-615h282q26 1 40 14.5t21 34.5t8 48t1 54v545h150v-567v-15q1 -35 6.5 -57t19 -35t36 -17.5t57.5 -4.5h81v-143z" />
    <glyph glyph-name="uniFEB6" unicode="&#x634;" horiz-adv-x="2243" arabic-form="final" 
d="M2243 0h-126q-94 1 -151 49q-32 -26 -81 -37.5t-115 -11.5h-736v-149.5t-2 -119.5q-2 -109 -58.5 -165.5t-161.5 -56.5h-339q-75 1 -137.5 23.5t-109.5 64t-77 101t-41 134.5q-9 55 -7.5 114t12.5 116q11 60 30.5 113t48.5 101l126 -85q-56 -102 -70 -226
q-15 -147 52.5 -226t214.5 -83h253q34 0 56.5 5t36 18t19.5 35t7 56v772h-68v145h215v-544h355v615h152v-615h144t138 1q26 1 40 14.5t21 34.5t8 47.5t1 53.5v545h150v-567v-15q1 -35 6.5 -57t19 -35t36 -17.5t57.5 -4.5h81v-143zM1257 1152h148v-149h-148v149zM1483 1152
h148v-149h-148v149zM1369 1358h148v-149h-148v149z" />
    <glyph glyph-name="uniFEB7" unicode="&#x634;" horiz-adv-x="1396" arabic-form="initial" 
d="M-10 143h150v399h-68v145h215v-544h355v615h152v-615h144t138 1q26 1 40 14.5t21 34.5t8 47.5t1 53.5v545h150v-567q0 -74 -15 -126t-47.5 -84.5t-84.5 -47t-126 -14.5h-1033v143zM516 1152h148v-149h-148v149zM742 1152h148v-149h-148v149zM628 1358h148v-149h-148v149z
" />
    <glyph glyph-name="uniFEB8" unicode="&#x634;" horiz-adv-x="1493" arabic-form="medial" 
d="M1493 0h-126q-94 1 -151 49q-32 -26 -81 -37.5t-115 -11.5h-1030v143h147v399h-68v145h215v-544h355v615h152v-615h282q26 1 40 14.5t21 34.5t8 48t1 54v545h150v-567v-15q1 -35 6.5 -57t19 -35t36 -17.5t57.5 -4.5h81v-143zM516 1152h148v-149h-148v149zM742 1152h148
v-149h-148v149zM628 1358h148v-149h-148v149z" />
    <glyph glyph-name="uniFEBA" unicode="&#x635;" horiz-adv-x="2257" arabic-form="final" 
d="M1034 0v-149.5t-2 -119.5q-2 -109 -58.5 -165.5t-161.5 -56.5h-339q-75 1 -137.5 23.5t-109.5 64t-77 101t-41 134.5q-17 116 4 231.5t80 212.5l126 -85q-30 -49 -48.5 -109.5t-22 -122t8.5 -119t44 -100.5t85 -66.5t130 -17.5h253q34 0 56.5 5t36 18t19.5 35t7 56v772
h-68v145h215v-109q32 34 74 64.5t88 57t94 48t92 38t82 28t65 16.5q64 11 131.5 8.5t133.5 -14.5q57 -12 104.5 -42t81.5 -74t53.5 -99.5t21.5 -117.5q1 -39 1.5 -63t1 -41.5t0.5 -31t-0.5 -30.5t-1 -41t-1.5 -62q0 -45 -9 -79h211v-143h-1223zM1734 683q-76 16 -157.5 0
t-159 -50t-147.5 -78t-122.5 -85t-83 -70.5t-30.5 -33.5v-223h794q40 1 60 24.5t20 65.5q0 36 0.5 58t0.5 36.5t0.5 25.5t0.5 25.5t-0.5 36.5t-1.5 58q-5 91 -47 141.5t-127 68.5z" />
    <glyph glyph-name="uniFEBB" unicode="&#x635;" horiz-adv-x="1408" arabic-form="initial" 
d="M-10 143h147v399h-68v145h215v-109q32 34 74 64.5t88 57t94 48t92 38t82 28t65 16.5q64 11 131.5 8.5t133.5 -14.5q57 -12 104.5 -42t81.5 -74t53.5 -99.5t21.5 -117.5q1 -39 1.5 -63t1 -41.5t0.5 -31t-0.5 -30.5t-1 -41t-1.5 -62q-1 -112 -55.5 -164.5t-166.5 -57.5
h-1093v143zM984 683q-76 16 -157.5 0t-159 -50t-147.5 -78t-122.5 -85t-83 -70.5t-30.5 -33.5v-223h790q42 0 63 24t21 66q1 36 1.5 58t1 36.5t0.5 25.5t-0.5 25.5t-1 36.5t-1.5 58q-5 91 -47 141.5t-127 68.5z" />
    <glyph glyph-name="uniFEBC" unicode="&#x635;" horiz-adv-x="1509" arabic-form="medial" 
d="M-10 143h148v399h-68v145h215v-109q32 34 74 64.5t88 57t94 48t92 38t82 28t65 16.5q64 11 131.5 8.5t133.5 -14.5q57 -12 104.5 -42t81.5 -74t53.5 -99.5t21.5 -117.5q1 -39 1.5 -63t1 -41.5t0.5 -31t-0.5 -30.5t-1 -41t-1.5 -62q0 -45 -9 -79h212v-143h-1519v143z
M985 683q-76 16 -157.5 0t-159 -50t-147.5 -78t-122.5 -85t-83 -70.5t-30.5 -33.5v-223h790q42 0 63 24t21 66q1 36 1.5 58t1 36.5t0.5 25.5t-0.5 25.5t-1 36.5t-1.5 58q-5 91 -47 141.5t-127 68.5z" />
    <glyph glyph-name="uniFEBE" unicode="&#x636;" horiz-adv-x="2257" arabic-form="final" 
d="M1034 0v-149.5t-2 -119.5q-2 -109 -58.5 -165.5t-161.5 -56.5h-339q-75 1 -137.5 23.5t-109.5 64t-77 101t-41 134.5q-9 55 -7.5 114t12.5 116q11 60 30.5 113t48.5 101l126 -85q-56 -102 -70 -226q-15 -147 52.5 -226t214.5 -83h253q34 0 56.5 5t36 18t19.5 35t7 56v772
h-68v145h215v-109q32 34 74 64.5t88 57t94 48t92 38t82 28t65 16.5q64 11 131.5 8.5t133.5 -14.5q57 -12 104.5 -42t81.5 -74t53.5 -99.5t21.5 -117.5q1 -39 1.5 -63t1 -41.5t0.5 -31t-0.5 -30.5t-1 -41t-1.5 -62q0 -45 -9 -79h211v-143h-1223zM1734 683q-76 16 -157.5 0
t-159 -50t-147.5 -78t-122.5 -85t-83 -70.5t-30.5 -33.5v-223h794q40 1 60 24.5t20 65.5q0 36 0.5 58t0.5 36.5t0.5 25.5t0.5 25.5t-0.5 36.5t-1.5 58q-5 91 -47 141.5t-127 68.5zM1346 1152h148v-149h-148v149z" />
    <glyph glyph-name="uniFEBF" unicode="&#x636;" horiz-adv-x="1407" arabic-form="initial" 
d="M-10 143h146v399h-68v145h215v-109q32 34 74 64.5t88 57t94 48t92 38t82 28t65 16.5q64 11 131.5 8.5t133.5 -14.5q57 -12 104.5 -42t81.5 -74t53.5 -99.5t21.5 -117.5q1 -39 1.5 -63t1 -41.5t0.5 -31t-0.5 -30.5t-1 -41t-1.5 -62q-1 -112 -55.5 -164.5t-166.5 -57.5
h-1092v143zM983 683q-76 16 -157.5 0t-159 -50t-147.5 -78t-122.5 -85t-83 -70.5t-30.5 -33.5v-223h790q42 0 63 24t21 66q1 36 1.5 58t1 36.5t0.5 25.5t-0.5 25.5t-1 36.5t-1.5 58q-5 91 -47 141.5t-127 68.5zM625 1152h148v-149h-148v149z" />
    <glyph glyph-name="uniFEC0" unicode="&#x636;" horiz-adv-x="1540" arabic-form="medial" 
d="M-10 143h179v399h-68v145h215v-109q32 34 74 64.5t88 57t94 48t92 38t82 28t65 16.5q64 11 131.5 8.5t133.5 -14.5q57 -12 104.5 -42t81.5 -74t53.5 -99.5t21.5 -117.5q1 -39 1.5 -63t1 -41.5t0.5 -31t-0.5 -30.5t-1 -41t-1.5 -62q0 -45 -9 -79h212v-143h-1550v143z
M1016 683q-76 16 -157.5 0t-159 -50t-147.5 -78t-122.5 -85t-83 -70.5t-30.5 -33.5v-223h790q42 0 63 24t21 66q1 36 1.5 58t1 36.5t0.5 25.5t-0.5 25.5t-1 36.5t-1.5 58q-5 91 -47 141.5t-127 68.5zM661 1152h148v-149h-148v149z" />
    <glyph glyph-name="uniFEC2" unicode="&#x637;" horiz-adv-x="1539" arabic-form="final" 
d="M100 143h68v1034h-68v145h215v-744q32 34 74 64.5t88 57t94 48t92 38t82 28t65 16.5q64 11 131.5 8.5t133.5 -14.5q57 -12 104.5 -42t81.5 -74t53.5 -99.5t21.5 -117.5q1 -39 1.5 -63t1 -41.5t0.5 -31t-0.5 -30.5t-1 -41t-1.5 -62q0 -45 -9 -79h212v-143h-1439v143z
M1015 683q-76 16 -157.5 0t-159 -50t-147.5 -78t-122.5 -85t-83 -70.5t-30.5 -33.5v-223h790q42 0 63 24t21 66q1 36 1.5 58t1 36.5t0.5 25.5t-0.5 25.5t-1 36.5t-1.5 58q-5 91 -47 141.5t-127 68.5z" />
    <glyph glyph-name="uniFEC3" unicode="&#x637;" horiz-adv-x="1409" arabic-form="initial" 
d="M-10 143h148v1034h-68v145h215v-744q32 34 74 64.5t88 57t94 48t92 38t82 28t65 16.5q64 11 131.5 8.5t133.5 -14.5q57 -12 104.5 -42t81.5 -74t53.5 -99.5t21.5 -117.5q1 -39 1.5 -63t1 -41.5t0.5 -31t-0.5 -30.5t-1 -41t-1.5 -62q-1 -112 -55.5 -164.5t-166.5 -57.5
h-1094v143zM985 683q-76 16 -157.5 0t-159 -50t-147.5 -78t-122.5 -85t-83 -70.5t-30.5 -33.5v-223h790q42 0 63 24t21 66q1 36 1.5 58t1 36.5t0.5 25.5t-0.5 25.5t-1 36.5t-1.5 58q-5 91 -47 141.5t-127 68.5z" />
    <glyph glyph-name="uniFEC4" unicode="&#x637;" horiz-adv-x="1509" arabic-form="medial" 
d="M-10 143h148v1033h-68v145h215v-743q32 34 74 64.5t88 57t94 48t92 38t82 28t65 16.5q64 11 131.5 8.5t133.5 -14.5q57 -12 104.5 -42t81.5 -74t53.5 -99.5t21.5 -117.5q1 -39 1.5 -63t1 -41.5t0.5 -31t-0.5 -30.5t-1 -41t-1.5 -62q0 -45 -9 -79h212v-143h-1519v143z
M985 683q-76 16 -157.5 0t-159 -50t-147.5 -78t-122.5 -85t-83 -70.5t-30.5 -33.5v-223h790q42 0 63 24t21 66q1 36 1.5 58t1 36.5t0.5 25.5t-0.5 25.5t-1 36.5t-1.5 58q-5 91 -47 141.5t-127 68.5z" />
    <glyph glyph-name="uniFEC6" unicode="&#x638;" horiz-adv-x="1539" arabic-form="final" 
d="M100 143h68v1034h-68v145h215v-744q32 34 74 64.5t88 57t94 48t92 38t82 28t65 16.5q64 11 131.5 8.5t133.5 -14.5q57 -12 104.5 -42t81.5 -74t53.5 -99.5t21.5 -117.5q1 -39 1.5 -63t1 -41.5t0.5 -31t-0.5 -30.5t-1 -41t-1.5 -62q0 -45 -9 -79h212v-143h-1439v143z
M1015 683q-76 16 -157.5 0t-159 -50t-147.5 -78t-122.5 -85t-83 -70.5t-30.5 -33.5v-223h790q42 0 63 24t21 66q1 36 1.5 58t1 36.5t0.5 25.5t-0.5 25.5t-1 36.5t-1.5 58q-5 91 -47 141.5t-127 68.5zM652 1152h148v-149h-148v149z" />
    <glyph glyph-name="uniFEC7" unicode="&#x638;" horiz-adv-x="1407" arabic-form="initial" 
d="M-10 143h146v1035h-68v145h215v-745q32 34 74 64.5t88 57t94 48t92 38t82 28t65 16.5q64 11 131.5 8.5t133.5 -14.5q57 -12 104.5 -42t81.5 -74t53.5 -99.5t21.5 -117.5q1 -39 1.5 -63t1 -41.5t0.5 -31t-0.5 -30.5t-1 -41t-1.5 -62q-1 -112 -55.5 -164.5t-166.5 -57.5
h-1092v143zM983 683q-76 16 -157.5 0t-159 -50t-147.5 -78t-122.5 -85t-83 -70.5t-30.5 -33.5v-223h790q42 0 63 24t21 66q1 36 1.5 58t1 36.5t0.5 25.5t-0.5 25.5t-1 36.5t-1.5 58q-5 91 -47 141.5t-127 68.5zM622 1152h148v-149h-148v149z" />
    <glyph glyph-name="uniFEC8" unicode="&#x638;" horiz-adv-x="1507" arabic-form="medial" 
d="M-10 143h146v1033h-68v145h215v-743q32 34 74 64.5t88 57t94 48t92 38t82 28t65 16.5q64 11 131.5 8.5t133.5 -14.5q57 -12 104.5 -42t81.5 -74t53.5 -99.5t21.5 -117.5q1 -39 1.5 -63t1 -41.5t0.5 -31t-0.5 -30.5t-1 -41t-1.5 -62q0 -45 -9 -79h212v-143h-1517v143z
M983 683q-76 16 -157.5 0t-159 -50t-147.5 -78t-122.5 -85t-83 -70.5t-30.5 -33.5v-223h790q42 0 63 24t21 66q1 36 1.5 58t1 36.5t0.5 25.5t-0.5 25.5t-1 36.5t-1.5 58q-5 91 -47 141.5t-127 68.5zM617 1152h148v-149h-148v149z" />
    <glyph glyph-name="uniFECA" unicode="&#x639;" horiz-adv-x="1083" arabic-form="final" 
d="M1083 143v-143h-578q-140 -6 -205 -83q-68 -80 -51 -225q9 -91 44.5 -169t91.5 -146l-126 -90q-54 66 -91.5 142t-54.5 167q-11 57 -12 115t7 115q16 112 71.5 187t146.5 104q17 5 35.5 10t39.5 9q-203 286 -217 366q-7 48 -7 85.5t7.5 67.5t22.5 54t36 45
q43 43 113.5 66.5t172.5 18.5h131q102 5 172.5 -18.5t113.5 -66.5q21 -21 35.5 -45t22 -54t7.5 -67.5t-7 -85.5q-12 -79 -212 -359h291zM856 538q7 51 -23 84.5t-87 50.5q-51 16 -107 18h-90q-56 -2 -107 -18q-56 -17 -90 -51q-33 -33 -19 -84q8 -50 257 -395h7
q252 346 259 395z" />
    <glyph glyph-name="uniFECB" unicode="&#x639;" horiz-adv-x="966" arabic-form="initial" 
d="M-10 143h144q-30 42 -46.5 94t-16.5 115v125q1 84 30.5 150.5t80.5 113.5t121 72t152 25q105 0 208 -30.5t201 -81.5l-66 -144q-36 16 -82.5 34.5t-94 34t-92.5 25.5t-79 10q-50 0 -91 -15t-70.5 -44.5t-46 -72.5t-17.5 -99v-104q8 -95 63.5 -148t140.5 -60h437v-143
h-876v143z" />
    <glyph glyph-name="uniFECC" unicode="&#x639;" horiz-adv-x="1016" arabic-form="medial" 
d="M1016 143v-143h-1026v143h299q-200 280 -212 359q-8 48 -7.5 85.5t8 67.5t22.5 54t36 45q85 85 286 85h131q201 0 286 -85q21 -21 38 -46.5t26 -56.5t8 -68t-14 -81q-12 -38 -62 -128.5t-150 -230.5h331zM749 538q8 51 -22.5 84.5t-87.5 50.5q-13 4 -27.5 7.5t-36 5.5
t-53.5 3.5t-80 1.5q-53 0 -106.5 -16t-90.5 -53q-17 -17 -20.5 -37.5t1.5 -46.5q5 -25 68 -123t189 -272h7q252 346 259 395z" />
    <glyph glyph-name="uniFECE" unicode="&#x63a;" horiz-adv-x="1083" arabic-form="final" 
d="M1083 143v-143h-578q-140 -6 -205 -83q-68 -80 -51 -225q9 -91 44.5 -169t91.5 -146l-126 -90q-54 66 -91.5 142t-54.5 167q-11 57 -12 115t7 115q16 112 71.5 187t146.5 104q17 5 35.5 10t39.5 9q-203 286 -217 366q-7 48 -7 85.5t7.5 67.5t22.5 54t36 45
q43 43 113.5 66.5t172.5 18.5h131q102 5 172.5 -18.5t113.5 -66.5q21 -21 35.5 -45t22 -54t7.5 -67.5t-7 -85.5q-12 -79 -212 -359h291zM856 538q7 51 -23 84.5t-87 50.5q-51 16 -107 18h-90q-56 -2 -107 -18q-56 -17 -90 -51q-33 -33 -19 -84q8 -50 257 -395h7
q252 346 259 395zM513 1152h148v-149h-148v149z" />
    <glyph glyph-name="uniFECF" unicode="&#x63a;" horiz-adv-x="986" arabic-form="initial" 
d="M375 1247h142v-143h-142v143zM10 143h144q-30 42 -46.5 94t-16.5 115v125q1 84 30.5 150.5t80.5 113.5t121 72t152 25q105 0 208 -30.5t201 -81.5l-66 -144q-36 16 -82.5 34.5t-94 34t-92.5 25.5t-79 10q-50 0 -91 -15t-70.5 -44.5t-46 -72.5t-17.5 -99v-104
q8 -95 63.5 -148t140.5 -60h437v-143h-876v143z" />
    <glyph glyph-name="uniFED0" unicode="&#x63a;" horiz-adv-x="1016" arabic-form="medial" 
d="M1016 143v-143h-1026v143h299q-200 280 -212 359q-8 48 -7.5 85.5t8 67.5t22.5 54t36 45q85 85 286 85h131q201 0 286 -85q21 -21 38 -46.5t26 -56.5t8 -68t-14 -81q-12 -38 -62 -128.5t-150 -230.5h331zM749 538q8 51 -22.5 84.5t-87.5 50.5q-13 4 -27.5 7.5t-36 5.5
t-53.5 3.5t-80 1.5q-53 0 -106.5 -16t-90.5 -53q-17 -17 -20.5 -37.5t1.5 -46.5q5 -25 68 -123t189 -272h7q252 346 259 395zM406 1152h148v-149h-148v149z" />
    <glyph glyph-name="uniFED2" unicode="&#x641;" horiz-adv-x="1790" arabic-form="final" 
d="M473 0q-75 1 -137.5 23.5t-109.5 64t-77 101.5t-41 135q-8 57 -7 115t12 115q15 81 46.5 151t79.5 133l125 -88q-48 -63 -77 -134.5t-39 -159.5q-15 -147 52.5 -228.5t214.5 -84.5h273q-11 30 -12 67q-2 35 -2 83.5t1.5 99.5t4.5 99t8 83q15 97 71 162.5t153 92.5
q117 32 226 10.5t206 -102.5v101h213v-143h-68v-553h201v-143h-1317zM1445 531q0 20 -26 47.5t-66 53.5t-89 45.5t-95 23.5q-122 7 -180 -49.5t-66 -187.5v-188q0 -41 4.5 -66.5t17.5 -40t37 -20t62 -6.5h401v388zM1064 1152h148v-149h-148v149z" />
    <glyph glyph-name="uniFED3" unicode="&#x641;" horiz-adv-x="1056" arabic-form="initial" 
d="M-10 143h609q41 0 68.5 7t44 20t23.5 31.5t7 41.5h-66q-91 0 -180.5 -0.5t-179.5 0.5q-112 2 -172.5 52.5t-67.5 153.5q-4 69 -5.5 138t9.5 138q15 97 74.5 163t156.5 93q103 29 198.5 17.5t185.5 -74.5l41 -30v99h220v-144h-66v-615q-1 -109 -48.5 -168t-153.5 -66h-698
v143zM736 668q-31 81 -102 129t-164 55q-123 8 -183.5 -47.5t-62.5 -187.5l-1 -92q-1 -42 4 -68t19.5 -40.5t40 -20t66.5 -6.5h383v278zM367 1259h148v-149h-148v149z" />
    <glyph glyph-name="uniFED4" unicode="&#x641;" horiz-adv-x="1084" arabic-form="medial" 
d="M-10 143h92q-11 30 -12 67q-2 35 -2 83.5t1.5 99.5t4.5 99t8 83q15 97 71 162.5t153 92.5q117 32 226 10.5t206 -102.5v101h213v-143h-68v-553h201v-143h-1094v143zM739 531q0 20 -26 47.5t-66 53.5t-89 45.5t-95 23.5q-122 7 -180 -49.5t-66 -187.5v-188
q0 -41 4.5 -66.5t17.5 -40t37 -20t62 -6.5h401v388zM381 1152h148v-149h-148v149z" />
    <glyph glyph-name="uniFED6" unicode="&#x642;" horiz-adv-x="1505" arabic-form="final" 
d="M365 260q-48 -63 -77.5 -135t-39.5 -160q-15 -147 52.5 -228.5t214.5 -84.5h525q35 0 57.5 4.5t35.5 17.5t18.5 35t6.5 57v234h-426q-229 5 -243 210q-2 35 -2 83.5t1.5 99.5t4.5 99t8 83q15 97 71 162.5t153 92.5q117 32 226 10.5t206 -102.5v101h213v-143h-65v-553h200
v-143h-200v-267q-2 -109 -58.5 -165.5t-161.5 -58.5h-612q-75 1 -137.5 23.5t-109.5 64t-77 101.5t-41 135q-8 57 -7 115t12 115q18 96 57.5 175t99.5 148zM1158 531q0 20 -26 47.5t-66 53.5t-89 45.5t-95 23.5q-122 7 -180 -49.5t-66 -187.5v-188q0 -41 5 -67t19 -40.5
t39 -20t66 -5.5h393v388zM681 1152h148v-149h-148v149zM907 1152h148v-149h-148v149z" />
    <glyph glyph-name="uniFED7" unicode="&#x642;" horiz-adv-x="1055" arabic-form="initial" 
d="M-10 143h608q41 0 68.5 7t44 20t23.5 31.5t7 41.5h-66q-91 0 -180.5 -0.5t-179.5 0.5q-112 2 -172.5 52.5t-67.5 153.5q-4 69 -5.5 138t9.5 138q15 97 74.5 163t156.5 93q103 29 198.5 17.5t185.5 -74.5l41 -30v99h220v-144h-66v-615q-1 -109 -48.5 -168t-153.5 -66h-697
v143zM735 668q-31 81 -102 129t-164 55q-123 8 -183.5 -47.5t-62.5 -187.5l-1 -92q-1 -42 4 -68t19.5 -40.5t40 -20t66.5 -6.5h383v278zM289 1261h148v-149h-148v149zM515 1261h148v-149h-148v149z" />
    <glyph glyph-name="uniFED8" unicode="&#x642;" horiz-adv-x="1086" arabic-form="medial" 
d="M-10 143h94q-11 30 -12 67q-2 35 -2 83.5t1.5 99.5t4.5 99t8 83q15 97 71 162.5t153 92.5q117 32 226 10.5t206 -102.5v101h213v-143h-68v-553h201v-143h-1096v143zM741 531q0 20 -26 47.5t-66 53.5t-89 45.5t-95 23.5q-122 7 -180 -49.5t-66 -187.5v-188
q0 -41 4.5 -66.5t17.5 -40t37 -20t62 -6.5h401v388zM322 1152h148v-149h-148v149zM548 1152h148v-149h-148v149z" />
    <glyph glyph-name="uniFEDA" unicode="&#x643;" horiz-adv-x="1713" arabic-form="final" 
d="M1713 0h-128q-91 1 -148 46q-54 -45 -147 -46h-817q-75 1 -137.5 23.5t-109.5 64t-77 101.5t-41 135q-8 57 -7 115t12 115q16 82 48.5 152.5t80.5 133.5l123 -88q-48 -63 -77.5 -135.5t-39.5 -160.5q-15 -147 52.5 -228.5t214.5 -84.5h730q35 0 57.5 4.5t36 17.5t19 35
t6.5 57v918h-68v146h215v-1064q1 -35 6.5 -57t19 -35t36 -17.5t57.5 -4.5h83v-143zM926 685v34q-30 3 -53 2t-38 -9.5t-23 -27t-8 -51.5v-84h226v-115h-378v115h35v95q1 51 20.5 90t52.5 64.5t78 35.5t98 3q13 -2 33 -5.5t58 -16.5v-130h-101z" />
    <glyph glyph-name="uniFEDB" unicode="&#x643;" horiz-adv-x="1320" arabic-form="initial" 
d="M1072 143v245q0 41 -5.5 67t-20 40.5t-40.5 19.5t-66 5h-779l-91 109l686 565l-33 39l111 93l125 -148l-619 -509h622q134 0 195.5 -61t62.5 -194l-1 -414h-1229v143h1082z" />
    <glyph glyph-name="uniFEDC" unicode="&#x643;" horiz-adv-x="1419" arabic-form="medial" 
d="M1072 143v245q0 41 -5.5 67t-20 40.5t-40.5 19.5t-66 5h-779l-91 109l686 563l-33 39l111 93l125 -148l-619 -507h622q134 0 195 -61t62 -194v-271h200v-143h-1429v143h1082z" />
    <glyph glyph-name="uniFEDE" unicode="&#x644;" horiz-adv-x="1233" arabic-form="final" 
d="M1033 -168q0 -76 -29.5 -136t-80.5 -101t-118 -63.5t-142 -23.5h-193q-75 1 -142 23.5t-118 63.5t-80.5 101t-29.5 136v437h215v-146h-68v-242q10 -113 78.5 -168t186.5 -57h109q59 1 108 12t84.5 34.5t55 62t19.5 95.5v1316h-68v145h215l-1 -1178h199v-143h-200v-168z
" />
    <glyph glyph-name="uniFEDF" unicode="&#x644;" horiz-adv-x="439" arabic-form="initial" 
d="M-10 143h83q35 0 57.5 4.5t36 17.5t19 35t6.5 57v917h-68v146h215v-1096q-2 -109 -59 -165.5t-162 -58.5h-128v143z" />
    <glyph glyph-name="uniFEE0" unicode="&#x644;" horiz-adv-x="559" arabic-form="medial" 
d="M559 0h-138q-91 1 -148 46q-54 -45 -147 -46h-136v143h91q35 0 57.5 4.5t36 17.5t19 35t6.5 57v1063h147v-1063q1 -35 6.5 -57t19 -35t36 -17.5t57.5 -4.5h93v-143z" />
    <glyph glyph-name="uniFEE2" unicode="&#x645;" horiz-adv-x="1345" arabic-form="final" 
d="M575 0q-72 0 -129 26q-274 -82 -166 -358q10 -26 23 -51.5t28 -48.5l-134 -57q-28 35 -46.5 81.5t-29.5 89.5q-47 168 9 287.5t213 177.5q-5 15 -7 30.5t-4 32.5q-2 35 -2 83.5t1.5 99.5t4.5 99t8 83q15 97 71 162.5t153 92.5q117 32 226 10.5t206 -102.5v101h213v-143
h-68v-553h200v-143h-770zM1001 531q0 20 -26 47.5t-66 53.5t-89 45.5t-95 23.5q-122 7 -180 -49.5t-66 -187.5v-188q0 -41 5 -67t19 -40.5t39 -20t66 -5.5h393v388z" />
    <glyph glyph-name="uniFEE3" unicode="&#x645;" horiz-adv-x="1182" arabic-form="initial" 
d="M-10 143h91q34 0 56 4.5t35 16t19 32t8 52.5q-1 36 -1 80.5t2 89t5 86t8 71.5q15 97 71 162.5t153 92.5q117 32 226 10.5t206 -102.5v101h213v-143h-68v-696h-570q-105 2 -167 49q-57 -48 -151 -49h-136v143zM870 531q0 20 -26 47.5t-66 53.5t-89 45.5t-95 23.5
q-122 7 -180 -49.5t-66 -187.5v-188q0 -41 5 -67t19 -40.5t39 -20t66 -5.5h393v388z" />
    <glyph glyph-name="uniFEE4" unicode="&#x645;" horiz-adv-x="1211" arabic-form="medial" 
d="M444 0q-105 2 -167 49q-57 -48 -151 -49h-136v143h91q34 0 56 4.5t35 16t19 32t8 52.5q-1 36 -1 80.5t2 89t5 86t8 71.5q15 97 71 162.5t153 92.5q117 32 226 10.5t206 -102.5v101h213v-143h-68v-553h197v-143h-767zM870 531q0 20 -26 47.5t-66 53.5t-89 45.5t-95 23.5
q-122 7 -180 -49.5t-66 -187.5v-188q0 -41 5 -67t19 -40.5t39 -20t66 -5.5h393v388z" />
    <glyph glyph-name="uniFEE6" unicode="&#x646;" horiz-adv-x="1233" arabic-form="final" 
d="M1033 -168q0 -76 -29.5 -136t-80.5 -101t-118 -63.5t-142 -23.5h-193q-75 1 -142 23.5t-118 63.5t-80.5 101t-29.5 136v437h215v-146h-68v-242q10 -113 78.5 -168t186.5 -57h109q59 1 108 12t84.5 34.5t55 62t19.5 95.5v682h-68v145h215l-1 -544h199v-143h-200v-168z
M404 687h148v-149h-148v149z" />
    <glyph glyph-name="uniFEE7" unicode="&#x646;" horiz-adv-x="515" arabic-form="initial" 
d="M-10 143h159q35 0 57.5 4.5t36 17.5t19 35t6.5 57v436h-68v146h215v-615q-2 -109 -59 -165.5t-162 -58.5h-204v143zM192 1152h148v-149h-148v149z" />
    <glyph glyph-name="uniFEE8" unicode="&#x646;" horiz-adv-x="559" arabic-form="medial" 
d="M559 0h-138q-91 1 -148 46q-54 -45 -147 -46h-136v143h91q35 0 57.5 4.5t36 17.5t19 35t6.5 57v494h147v-494q1 -35 6.5 -57t19 -35t36 -17.5t57.5 -4.5h93v-143zM196 1152h148v-149h-148v149z" />
    <glyph glyph-name="uniFEEA" unicode="&#x647;" horiz-adv-x="1116" arabic-form="final" 
d="M916 696v-553h200v-143h-770q-229 5 -243 210q-2 35 -2 83.5t1.5 99.5t4.5 99t8 83q15 97 71 162.5t153 92.5q117 32 226 10.5t206 -102.5v101h213v-143h-68zM772 531q0 20 -26 47.5t-66 53.5t-89 45.5t-95 23.5q-122 7 -180 -49.5t-66 -187.5v-188q0 -41 5 -67t19 -40.5
t39 -20t66 -5.5h393v388z" />
    <glyph glyph-name="uniFEEB" unicode="&#x647;" horiz-adv-x="1439" arabic-form="initial" 
d="M878 979q98 13 181.5 -6t145 -66t97 -119.5t37.5 -165.5v-622h-1349v143h123q-11 30 -12 67q-3 70 -0.5 141.5t12.5 140.5q15 97 71 162.5t153 92.5q96 26 184 17l-33 77q85 51 186 87.5t204 50.5zM770 448q0 20 -26 47.5t-66 53.5t-89 45.5t-95 23.5q-122 7 -180 -49.5
t-66 -187.5q-1 -23 -1 -52t1 -53q0 -41 4.5 -66.5t17.5 -40t37 -20t62 -6.5h401v305zM914 143h270v458q-1 66 -24 114t-63 76.5t-94.5 37t-118.5 -4.5q-29 -6 -61.5 -16t-65.5 -21.5t-65 -24.5t-60 -25q73 -29 137 -82q26 -20 52 -42t46.5 -47t33.5 -53t13 -60v-310z" />
    <glyph glyph-name="uniFEEC" unicode="&#x647;" horiz-adv-x="1533" arabic-form="medial" 
d="M877 979q98 13 181.5 -6t145 -66t97 -119.5t37.5 -165.5v-479h195v-143h-1543v143h122q-11 30 -12 67q-3 70 -0.5 141.5t12.5 140.5q15 97 71 162.5t153 92.5q96 26 184 17l-33 77q85 51 186 87.5t204 50.5zM769 448q0 20 -26 47.5t-66 53.5t-89 45.5t-95 23.5
q-122 7 -180 -49.5t-66 -187.5q-1 -23 -1 -52t1 -53q0 -41 4.5 -66.5t17.5 -40t37 -20t62 -6.5h401v305zM913 143h270v458q-1 66 -24 114t-63 76.5t-94.5 37t-118.5 -4.5q-29 -6 -61.5 -16t-65.5 -21.5t-65 -24.5t-60 -25q73 -29 137 -82q26 -20 52 -42t46.5 -47t33.5 -53
t13 -60v-310z" />
    <glyph glyph-name="uniFEEE" unicode="&#x648;" horiz-adv-x="1116" arabic-form="final" 
d="M772 0h-426q-229 5 -243 210q-2 35 -2 83.5t1.5 99.5t4.5 99t8 83q15 97 71 162.5t153 92.5q117 32 226 10.5t206 -102.5v101h213v-143h-68v-553h200v-143h-200v-128q-2 -92 -36 -163t-93.5 -118.5t-141.5 -68t-179 -10.5q-45 5 -84.5 13.5t-81.5 22.5l16 150
q13 -5 42.5 -11.5t62.5 -12.5t63 -10.5t45 -4.5q118 2 176 56.5t67 171.5v113zM772 531q0 20 -26 47.5t-66 53.5t-89 45.5t-95 23.5q-122 7 -180 -49.5t-66 -187.5v-188q0 -41 5 -67t19 -40.5t39 -20t66 -5.5h393v388z" />
    <glyph glyph-name="uniFEF0" unicode="&#x649;" horiz-adv-x="1469" arabic-form="final" 
d="M786 143h683v-143h-149q-2 -38 -6 -77q-11 -75 -41 -135t-77 -101.5t-109.5 -64t-137.5 -23.5h-479q-75 1 -138 23.5t-111 64t-79 101.5t-42 135v586h215v-146h-68v-396q10 -113 78.5 -168t186.5 -57h395q119 2 188 58t78 172v5l-2 23h-385v143z" />
    <glyph glyph-name="uniFEF2" unicode="&#x64a;" horiz-adv-x="1469" arabic-form="final" 
d="M786 143h683v-143h-149q-2 -38 -6 -77q-11 -75 -41 -135t-77 -101.5t-109.5 -64t-137.5 -23.5h-479q-75 1 -138 23.5t-111 64t-79 101.5t-42 135v586h215v-146h-68v-396q10 -113 78.5 -168t186.5 -57h395q119 2 188 58t78 172v5l-2 23h-385v143zM515 -548h148v-149h-148
v149zM741 -548h148v-149h-148v149z" />
    <glyph glyph-name="uniFEF3" unicode="&#x64a;" horiz-adv-x="633" arabic-form="initial" 
d="M-10 143h277q35 0 57.5 4.5t36 17.5t19 35t6.5 57v436h-68v146h215v-615q-2 -109 -59 -165.5t-162 -58.5h-322v143zM103 -146h148v-149h-148v149zM329 -146h148v-149h-148v149z" />
    <glyph glyph-name="uniFEF4" unicode="&#x64a;" horiz-adv-x="634" arabic-form="medial" 
d="M634 0h-166q-91 1 -148 46q-54 -45 -147 -46h-183v143h138q35 0 57.5 4.5t36 17.5t19 35t6.5 57v494h147v-494q1 -35 6.5 -57t19 -35t36 -17.5t57.5 -4.5h121v-143zM149 -146h148v-149h-148v149zM375 -146h148v-149h-148v149z" />
    <glyph glyph-name="uniFEF9" unicode="&#xfef9;" horiz-adv-x="853" arabic-form="isolated" 
d="M218 -338q3 -41 27.5 -64t61.5 -26h127v-61h-315v61h59q-26 37 -26 91v28q0 36 12.5 65t34.5 49t52.5 31t66.5 11q26 0 52.5 -5t53.5 -13v-89h-66v34q-12 4 -23 5.5t-19 1.5q-44 0 -70.5 -25.5t-27.5 -74.5v-19zM100 143h387q35 0 57.5 4.5t36 17.5t19 35t6.5 57v917h-68
v146h215v-1096q-2 -109 -59 -165.5t-162 -58.5h-432v143zM320 205h-143v697h-67v144h210v-841z" />
    <glyph glyph-name="uniFEFA" unicode="&#xfefa;" horiz-adv-x="954" arabic-form="final" 
d="M218 -338q3 -41 27.5 -64t61.5 -26h127v-61h-315v61h59q-26 37 -26 91v28q0 36 12.5 65t34.5 49t52.5 31t66.5 11q26 0 52.5 -5t53.5 -13v-89h-66v34q-12 4 -23 5.5t-19 1.5q-44 0 -70.5 -25.5t-27.5 -74.5v-19zM954 0h-127q-91 1 -148 46q-54 -45 -147 -46h-432v143h387
q35 0 57.5 4.5t36 17.5t19 35t6.5 57v918h-68v146h215v-1064q1 -35 6.5 -57t19 -35t36 -17.5t57.5 -4.5h82v-143zM320 205h-143v698h-67v144h210v-842z" />
    <glyph glyph-name=".notdef" horiz-adv-x="2159" 
d="M789 1212q19 -10 51 -61q30 -48 78 -129q25 -42 57.5 -90t74.5 -104q70 -94 169 -114q87 -19 120 29l-18 -1q-26 -1 -52 2.5t-51 11.5q-68 20 -92 91q-28 88 27 191q43 78 117 113q70 31 124 6q41 -20 55 -83q9 -42 2 -68q-3 -13 -6 -19q-34 -66 -80 -47q-18 7 -26 27
q-7 21 2 44q33 35 16 70q-8 14 -26 15q-21 2 -51 -17q-35 -20 -54 -51q-44 -71 -23 -134q10 -31 47 -51q37 -19 76 -15q76 9 162 94q14 14 37.5 37t55.5 55q56 51 97 19q16 -13 16 -35q-2 -25 -21 -44q-58 -17 -108 -70q-13 -14 -24 -27t-20 -25q-8 -11 -19.5 -25.5
t-25.5 -32.5q-83 -119 -178 -146q-84 -24 -163 16q-69 34 -115 103q4 -62 -16 -104q-17 -34 -46 -47q-31 -16 -71 -12q46 -27 139 -20q14 1 33 2.5t44 4.5q83 10 106 -2q13 -7 4 -29q-65 -146 -229 -212q-136 -55 -332 -47q-161 6 -318 54q-143 43 -190 95q-51 50 -42 97
q6 36 47 53q39 13 68 -13q44 -39 124 -83q101 -57 208 -86q124 -33 248 -30q137 3 233 52q51 25 89 66q-2 0 -9 -1t-19 -3q-71 -12 -148 -7q-96 7 -131 66q-19 32 -5 85q125 16 157 93q27 63 -16 129q-21 32 -102 125q-86 100 -108 136q-42 69 -3 96q32 20 54 7zM1855 743
q14 -15 -5 -29q-14 -9 -21 1q-6 6 -7 8q-3 5 -7 6q-27 19 -52 -21l-60 -109q2 1 4.5 2t6.5 2q6 1 12 6q-2 -4 -8.5 -9t-17.5 -10q-30 -64 -10 -123q21 -62 90 -76q54 -7 113 11q20 6 46.5 16t58.5 24q13 6 31 1q18 -4 26 -19q11 -21 -9 -44q-16 -17 -42 -28
q-133 -42 -238 -12q-83 29 -108 103q-23 69 16 145q-11 0 -23 5q-10 5 -8 3q-83 -90 -134 -116q-51 -21 -99 -12q-58 10 -66 61q-6 40 23 66q29 23 60 10q23 -5 17 -30q-7 -19 -32 -15q-30 7 -38 -17q-9 -25 11 -43q23 -18 59 -9q42 9 86 50q7 5 16 14.5t21 22.5
q18 19 36 36q-25 13 -49 9q-24 -5 -25 -21q-2 -17 9 -30q-26 8 -20 42q8 35 42 38q29 3 61 -14q74 74 128 102q40 22 73 17q14 -3 33 -14zM1731 691q-8 -7 -17 -16.5t-19 -20.5l-38 -43q8 -2 13 -5q4 -3 10 -3zM1803 651q-4 -13 -10.5 -25.5t-14.5 -26.5q-23 -37 -35.5 -60
t-14.5 -33q-3 -14 10 -14q11 -1 24 7q18 11 37 38q8 11 11 23q3 13 11 21q7 8 16 -2q1 -1 -1 -15q0 -2 -0.5 -5.5t-1.5 -8.5l-2 -14q-8 -41 0 -54q5 -9 15 -8t33 18q15 10 22 -4q6 -19 -5 -27q-17 -17 -40 -18q-29 -2 -39 18q-7 13 -7 28q0 27 11 51q-14 -25 -28 -43
t-28 -31q-14 -12 -29 -8q-14 3 -20 15q-12 20 2 58l15 35q22 38 28 58q4 12 4 37q-4 24 22 23q22 -2 15 -33zM1855 621q-14 -20 -16 -20q-4 -1 -6 2q-5 7 -4 13q2 8 -2 12q0 19 19 15q16 -4 9 -22zM1437 343q-3 -44 -63 -66q-64 -23 -176 -37l-98 -11q-61 -7 -103.5 -13
t-67.5 -12q-74 -20 -75 -52q-1 -19 23 -46q-2 -50 -46 -56q-43 -7 -55 25q-31 82 53 138q68 45 206 70q140 24 195 44q48 18 98 62q36 33 75 12q37 -22 34 -58z" />
    <glyph glyph-name=".null" 
 />
    <glyph glyph-name="nonmarkingreturn" unicode="&#xd;" horiz-adv-x="250" 
 />
    <glyph glyph-name="space" unicode=" " horiz-adv-x="450" 
 />
    <glyph glyph-name="exclam" unicode="!" horiz-adv-x="389" 
d="M289 473h-144v702h-45v146h189v-848zM145 368h143v-198h-143v198z" />
    <glyph glyph-name="quotedbl" unicode="&#x22;" horiz-adv-x="587" 
d="M100 1089v233h144v-233h-144zM346 1322h141v-231h-141v231z" />
    <glyph glyph-name="numbersign" unicode="#" horiz-adv-x="1147" 
d="M1047 630v-137h-295l-150 -498l-131 39l139 459l-198 -1q-8 -1 -18.5 -14t-15.5 -26l-141 -457l-129 39q61 200 95.5 314t44.5 144h-146v138l149 2q10 1 23.5 5.5t15.5 11.5l66 192h-256v137h295l107 358l129 -38l-94 -315h222l105 353l129 -38l-92 -318h143v-137h-145
q-7 -1 -13 -3t-13 -4q-13 -4 -80 -206h254zM715 843h-191q-8 0 -17 -3.5t-11 -9.5l-67 -200l194 2q8 1 19 7t12 13z" />
    <glyph glyph-name="dollar" unicode="$" horiz-adv-x="1142" 
d="M503 -230v230h-398v301h130v-158h266v500h-401v436q1 125 58 182.5t181 61.5h164v114h135v-115h365v-138h-358v-403q124 1 167 0q60 -1 103 -14t71 -40t41.5 -69.5t14.5 -103.5v-320q-2 -121 -58 -176.5t-176 -57.5h-167v-230h-138zM645 139l163 1q29 2 47.5 6.5t29 15
t14.5 28.5t5 48v313q-1 18 -4 34t-10.5 28.5t-20.5 20.5t-33 9l-191 1v-505zM503 785v398h-166q-30 -4 -49 -9.5t-30.5 -16.5t-15.5 -29.5t-4 -48.5l-1 -294h266z" />
    <glyph glyph-name="percent" unicode="%" horiz-adv-x="1267" 
d="M1167 93q-2 -60 -34 -93t-92 -37h-213q-127 5 -127 133v345q2 80 44.5 120.5t122.5 40.5h149q31 -1 58 -12.5t47 -31t31.5 -46.5t13.5 -58v-361zM823 125q0 -20 8 -31t31 -9h146q11 2 24 14t13 22l1 290q0 24 -10 32t-33 8h-137q-25 0 -34 -10t-9 -33v-283zM100 1182
q1 137 138 142q94 1 192 0q133 -4 136 -137q3 -168 0 -335q-2 -66 -37 -101t-100 -37h-193q-66 2 -100 38t-36 101v329zM443 1156q0 23 -8.5 34t-31.5 11h-143q-5 0 -11.5 -4t-11.5 -10t-8.5 -12.5t-3.5 -10.5v-290q0 -10 13 -22t23 -14q36 -3 71.5 -1t70.5 0q23 -1 31.5 9
t8.5 30v280zM981 1310q27 -16 53 -31t53 -32l-801 -1297q-27 16 -52 32t-51 33z" />
    <glyph glyph-name="ampersand" unicode="&#x26;" horiz-adv-x="1355" 
d="M1098 565v-293l157 -173l-104 -97l-83 91q-28 -32 -58.5 -50t-63 -28t-67 -12.5t-68.5 -2.5h-461q-57 1 -102.5 11.5t-77.5 35t-50 65t-20 101.5v380q4 85 45.5 144.5t124.5 76.5l1 274q0 107 45.5 163t149.5 70h279q87 -13 129.5 -56.5t47.5 -129.5l-1 -270
q-7 -97 -65.5 -145t-161.5 -53h-97l351 -246v144h150zM807 143q20 1 42 3t42 7q42 13 46.5 32.5t-24.5 51.5l-487 391q-29 32 -59.5 37t-66.5 -7q-18 -7 -28 -18t-15.5 -24t-6.5 -28t-1 -31v-306q0 -30 5 -50.5t17 -32.5t32.5 -17.5t51.5 -6.5zM420 887q0 -35 20.5 -52
t54.5 -18h202q32 1 54.5 18t22.5 52l-2 221q0 30 -17.5 47t-48.5 19l-187 4q-28 -2 -47 -7.5t-30.5 -17.5t-16.5 -31t-5 -47v-188z" />
    <glyph glyph-name="quotesingle" unicode="'" horiz-adv-x="341" 
d="M100 1320h141v-333h-141v333z" />
    <glyph glyph-name="parenleft" unicode="(" horiz-adv-x="677" 
d="M577 1321v-147h-194q-43 -1 -69.5 -6t-41 -19.5t-19.5 -40.5t-5 -69v-760q0 -43 5.5 -69t20 -40.5t41 -20t68.5 -6.5h192v-143h-289q-94 11 -138.5 68.5t-47.5 160.5v859q10 229 238 233h239z" />
    <glyph glyph-name="parenright" unicode=")" horiz-adv-x="677" 
d="M339 1321q228 -4 238 -233v-859q-3 -103 -47.5 -160.5t-138.5 -68.5h-289v143h192q42 1 68.5 6.5t41 20t20 40.5t5.5 69v760q0 43 -5 69t-19.5 40.5t-41 19.5t-69.5 6h-194v147h239z" />
    <glyph glyph-name="asterisk" unicode="*" horiz-adv-x="834" 
d="M340 1166v131h155v-130l92 92l109 -110l-92 -92h130v-155h-130l92 -92l-110 -109l-91 91v-129h-155v130l-92 -92l-110 109l92 92h-130v155h130l-92 92l109 110z" />
    <glyph glyph-name="plus" unicode="+" horiz-adv-x="848" 
d="M495 395h253v-141h-253v-254h-141v254h-254v141h254v253h141v-253z" />
    <glyph glyph-name="comma" unicode="," horiz-adv-x="343" 
d="M100 274h143v-331h-143v331z" />
    <glyph glyph-name="hyphen" unicode="-" horiz-adv-x="848" 
d="M748 481v-141h-648v141h648z" />
    <glyph glyph-name="period" unicode="." horiz-adv-x="343" 
d="M100 143h143v-143h-143v143z" />
    <glyph glyph-name="slash" unicode="/" horiz-adv-x="790" 
d="M557 1327l133 -54l-455 -1271l-135 57z" />
    <glyph glyph-name="zero" unicode="0" horiz-adv-x="1127" 
d="M1027 250q0 -129 -59.5 -189t-189.5 -62h-427q-129 2 -189 62.5t-62 189.5v816q0 131 61.5 191.5t193.5 61.5h420q133 0 192.5 -61t59.5 -194v-815zM250 269q0 -38 5 -62.5t18.5 -38.5t37 -19.5t59.5 -5.5h389q36 0 59 5.5t36.5 19t19 36.5t5.5 59v790q0 36 -5 59
t-18.5 36.5t-37 19t-59.5 5.5h-384q-38 0 -62.5 -5.5t-38.5 -20t-19 -39t-5 -62.5v-777z" />
    <glyph glyph-name="one" unicode="1" horiz-adv-x="389" 
d="M289 0h-144v1174h-45v146h189v-1320z" />
    <glyph glyph-name="two" unicode="2" horiz-adv-x="1093" 
d="M802 143v181h149v-324h-851v205q0 18 2 39.5t6.5 41.5t11 37.5t15.5 27.5l623 550q42 44 58.5 81t12.5 67t-24.5 52.5t-52 38t-71.5 23t-82 7.5h-474v151h507q101 5 173.5 -20t116.5 -69.5t60.5 -103.5t6.5 -122t-46.5 -126t-97.5 -114l-543 -457q-29 -38 -35 -77.5
t2 -88.5h533z" />
    <glyph glyph-name="three" unicode="3" horiz-adv-x="946" 
d="M100 1175v146h432q74 0 129 -17t92 -45t56.5 -65.5t22.5 -78t-10 -82.5t-41 -80l-161 -220h226l-1 -507q0 -64 -21.5 -107.5t-57.5 -69.5t-84 -37.5t-102 -11.5h-480v312h144v-169h337q35 0 57.5 5.5t36 18.5t18.5 35t5 56v320h-348l278 400q34 49 43.5 83t-1.5 56
t-38.5 33.5t-67 17t-88.5 6.5t-101 1h-275z" />
    <glyph glyph-name="four" unicode="4" horiz-adv-x="1108" 
d="M863 635v547h145v-1182h-145v480l-513 1q-64 4 -117 34.5t-86.5 79t-43.5 110.5t12 129l289 488l140 -44l-263 -448q-48 -82 -26.5 -135t114.5 -59z" />
    <glyph glyph-name="five" unicode="5" horiz-adv-x="1116" 
d="M100 1321h914v-141h-762v-382h764l-2 -568q-2 -114 -64.5 -172t-177.5 -58h-672v321h143v-178h510q33 1 55 6.5t34.5 18t18 34t5.5 54.5l1 392h-767v673z" />
    <glyph glyph-name="six" unicode="6" horiz-adv-x="1050" 
d="M893 1040q-86 32 -170.5 66t-171.5 52q-64 13 -118.5 4.5t-94.5 -37t-63.5 -77t-24.5 -115.5v-201l489 -1q100 -2 154 -52.5t57 -150.5v-342q-2 -81 -42 -130t-121 -56h-510q-88 5 -132 60.5t-45 152.5v741q2 94 37 166.5t95.5 120t143.5 66.5t181 6q103 -14 197.5 -50.5
t188.5 -93.5zM248 231q0 -42 22.5 -65.5t64.5 -23.5h384q42 0 63 23.5t23 65.5l-2 270q0 40 -22 62t-62 22h-471v-354z" />
    <glyph glyph-name="seven" unicode="7" horiz-adv-x="1086" 
d="M345 2l-139 57l559 1114h-518v-174h-147v322h886z" />
    <glyph glyph-name="eight" unicode="8" horiz-adv-x="1167" 
d="M100 458q0 31 6 65.5t18 65.5t31 55.5t45 36.5q-9 13 -13 28.5t-5 32t-0.5 34.5t0.5 36v357q1 31 12 58t31 47.5t48 33t63 13.5h491q85 -5 126 -49.5t46 -129.5l1 -330q0 -35 -7 -63t-25 -56q38 -27 58 -59t29 -68t10 -76.5t1 -83.5l-1 -228q-5 -85 -46 -129t-126 -49
h-638q-35 1 -63 13.5t-48 32.5t-31.5 47t-12.5 58v307zM749 733q58 0 80.5 19.5t24.5 75.5l1 263q-1 42 -21 66.5t-63 24.5h-366q-82 0 -82 -85v-281q0 -83 85 -83h341zM327 588q-85 0 -85 -83v-277q0 -85 82 -85h513q43 0 63 24.5t21 66.5q0 43 0.5 73t0.5 56.5t-0.5 56
t-1.5 73.5q-2 56 -24.5 75.5t-80.5 19.5h-488z" />
    <glyph glyph-name="nine" unicode="9" horiz-adv-x="1050" 
d="M169 291q34 -20 73.5 -39.5t82 -37.5t86.5 -32.5t88 -23.5q64 -13 118.5 -4.5t94.5 37t63 77t25 115.5v118l-489 1q-100 2 -154 52.5t-57 150.5v429q2 81 42 130t121 56h510q88 -5 132 -60.5t45 -152.5v-745q-2 -94 -37 -166.5t-95.5 -120t-143.5 -66.5t-181 -6
q-103 14 -197.5 50.5t-188.5 93.5zM802 1089q0 42 -22.5 65.5t-64.5 23.5h-384q-42 0 -63 -23.5t-23 -65.5l2 -357q0 -40 22 -62t62 -22h471v441z" />
    <glyph glyph-name="colon" unicode=":" horiz-adv-x="390" 
d="M100 829v186h189v-186h-189zM290 186v-186h-190v186h190z" />
    <glyph glyph-name="semicolon" unicode=";" horiz-adv-x="455" 
d="M318 783q37 -33 37 -87q0 -55 -37 -88q-32 -31 -82 -31t-84 31q-36 33 -36 88t36 87q34 30 84 30q49 0 82 -30zM349 333l3 -43v-22q0 -76 -26 -168q-26 -87 -76 -171l-150 38q52 147 52 282l-3 84h200z" />
    <glyph glyph-name="less" unicode="&#x3c;" horiz-adv-x="1199" 
d="M1096 135l-74 -135l-922 473l925 486l74 -144l-657 -342z" />
    <glyph glyph-name="equal" unicode="=" horiz-adv-x="909" 
d="M100 581v188h709v-188h-709zM100 250v188h709v-188h-709z" />
    <glyph glyph-name="greater" unicode="&#x3e;" horiz-adv-x="1199" 
d="M757 473l-657 342l74 144l925 -486l-922 -473l-74 135z" />
    <glyph glyph-name="question" unicode="?" horiz-adv-x="1000" 
d="M477 0h-147v626h421v435q0 31 -4 52.5t-15 34t-29.5 18.5t-47.5 7h-408v-174h-147v318q20 5 41 5h510q129 -2 189 -62.5t60 -189.5v-585h-423v-485zM328 -289v162h143v-162h-143z" />
    <glyph glyph-name="at" unicode="@" horiz-adv-x="1557" 
d="M694 -150v-144h-343q-129 2 -189 62.5t-62 189.5v1115q0 131 61.5 191.5t193.5 61.5h850q133 0 192.5 -61t59.5 -194v-821q0 -129 -59.5 -189t-189.5 -62h-117v1h-66v94q-49 -30 -99 -53t-102.5 -35.5t-109 -11.5t-117.5 19q-97 27 -152 92.5t-70 162.5q-6 34 -9.5 53.5
t-5 36t-1 35.5t3.5 54q6 103 66.5 153.5t172.5 52.5h426v36q0 45 -5 73t-20.5 43t-43.5 20t-74 5h-417v143l504 -1q108 -7 155.5 -65t48.5 -167v-597h13q36 0 59 5.5t36.5 19t19 36.5t5.5 59v796q0 36 -5 59t-18.5 36.5t-37 19t-59.5 5.5h-814q-38 0 -62.5 -5.5t-38.5 -20
t-19 -39t-5 -62.5v-1076q0 -38 5 -62.5t18.5 -38.5t37 -19.5t59.5 -5.5h324zM1028 503h-389q-52 -4 -79 -5.5t-38 -11.5t-12 -34.5t-1 -74.5q0 -132 62 -187.5t185 -47.5q45 3 88 17t79 38t63 56.5t42 71.5v178z" />
    <glyph glyph-name="A" unicode="A" horiz-adv-x="1256" 
d="M100 0v143h45v951q14 223 231 227h780v-147h-45v-1174h-151v627h-665v-627h-195zM388 1172q-26 0 -43.5 -5.5t-28.5 -17.5t-16 -31.5t-6 -47.5v-287h666v389h-572z" />
    <glyph glyph-name="B" unicode="B" horiz-adv-x="1284" 
d="M299 151v-149h-199v143h45v1025h-45v151h613q63 1 114 -11.5t87.5 -41t57 -73.5t22.5 -109v-263q0 -27 8.5 -40t37.5 -21q74 -20 108.5 -73t35.5 -122v-270q-7 -67 -36.5 -121t-75.5 -93t-106.5 -61.5t-129.5 -25.5q-72 -3 -141 3t-136 23.5t-132 49t-128 79.5zM301 400
q0 -13 7 -24.5t15 -22.5q100 -123 230 -171t283 -34q94 7 145.5 56t57.5 143v158q0 38 -4.5 62t-18 37.5t-37 19t-60.5 6.5h-618v-230zM304 1170v-387h540v301q-2 40 -23.5 63t-60.5 23h-456z" />
    <glyph glyph-name="C" unicode="C" horiz-adv-x="1229" 
d="M1009 427l120 -90q-46 -63 -97.5 -117t-110 -96t-125.5 -71.5t-144 -42.5q-57 -10 -114.5 -11t-114.5 8q-75 11 -134.5 41t-101 76.5t-64 109t-23.5 138.5v727q0 103 57 161t165 60h740v-192h-146v45h-553q-35 -1 -57 -6.5t-35 -19t-17.5 -36t-4.5 -57.5v-642
q2 -146 81 -213t226 -52q72 7 137 32t122 63t106 85.5t88 99.5z" />
    <glyph glyph-name="D" unicode="D" horiz-adv-x="1249" 
d="M100 1171v150h778q134 0 202 -57.5t69 -183.5v-694q0 -91 -26.5 -162.5t-76 -121t-121.5 -76.5t-163 -29q-66 -2 -121 3.5t-107.5 19.5t-106 39t-116.5 64v-123h-210v143h45v1028h-46zM308 461q-4 -91 31.5 -146t107.5 -91q69 -35 134.5 -55.5t137.5 -22.5
q73 -3 126.5 10t88 44.5t51 83t16.5 126.5v650q0 32 -5 53.5t-17.5 35t-33.5 19.5t-54 6l-583 -1v-712z" />
    <glyph glyph-name="E" unicode="E" horiz-adv-x="1094" 
d="M949 143v-143h-804v1176h-45v145h894v-215h-143v67h-553v-390h537v-150h-539v-490h653z" />
    <glyph glyph-name="F" unicode="F" horiz-adv-x="1094" 
d="M145 0v1176h-45v145h894v-215h-143v67h-553v-390h537v-150h-539v-633h-151z" />
    <glyph glyph-name="G" unicode="G" horiz-adv-x="1200" 
d="M951 148q-66 -51 -138.5 -86t-160.5 -52q-57 -9 -114.5 -10.5t-114.5 7.5q-75 11 -134.5 41t-101 76.5t-64 109t-23.5 138.5v728q0 103 57 161t165 60h740v-192h-146v45h-553q-35 -1 -57 -6.5t-35 -19t-17.5 -36t-4.5 -57.5v-643q2 -146 81 -213t226 -52q124 13 219 67.5
t176 142.5v168h-87v149h236v-674h-149v148z" />
    <glyph glyph-name="H" unicode="H" horiz-adv-x="1168" 
d="M290 783h631v537h147v-1320h-142v629h-633v-629h-148v1176h-45v144h190v-537z" />
    <glyph glyph-name="I" unicode="I" horiz-adv-x="388" 
d="M288 0h-143v1177h-45v144h188v-1321z" />
    <glyph glyph-name="J" unicode="J" horiz-adv-x="780" 
d="M100 29q5 42 10 73.5t11 70.5q25 -9 53.5 -14.5t55.5 -9.5q302 -33 302 266v763h-68v143h216v-932q0 -97 -27 -170t-78 -122t-124.5 -73.5t-166.5 -24.5q-45 0 -93.5 6t-90.5 24z" />
    <glyph glyph-name="K" unicode="K" horiz-adv-x="1251" 
d="M300 0h-200v143h45v1034h-45v145h197v-538l482 -1q43 1 69 6.5t40.5 20.5t19 42t4.5 71v399h149v-381q0 -74 -6.5 -127t-28.5 -90t-64.5 -58.5t-113.5 -31.5l303 -558l-127 -81l-355 644h-369v-639z" />
    <glyph glyph-name="L" unicode="L" horiz-adv-x="864" 
d="M764 0h-398q-105 2 -162 58.5t-59 165.5v954h-45v144h192v-1065q1 -35 6.5 -57t19 -35t36 -17.5t57.5 -4.5h353v-143z" />
    <glyph glyph-name="M" unicode="M" horiz-adv-x="1787" 
d="M785 0v1175h-441q-48 -2 -70 -27t-23 -70v-1078h-150v1042q-1 60 9.5 110.5t37 87.5t69.5 58.5t107 23.5h1299v-1180h64v-142h-211v1172h-541v-1172h-150z" />
    <glyph glyph-name="N" unicode="N" horiz-adv-x="1253" 
d="M295 0h-150v1173h-45v149l165 -1q14 -1 28 -12.5t25 -22.5l648 -584q4 -5 10 -12t12 -14.5l12 -15t9 -12.5l-1 673h145v-1321h-145v414q-13 35 -41 66.5t-60 62.5l-612 537v-1080z" />
    <glyph glyph-name="O" unicode="O" horiz-adv-x="1249" 
d="M1149 238q-3 -235 -239 -238h-561q-129 2 -189 63t-60 190v816q0 129 59.5 189.5t189.5 62.5h569q226 -2 231 -231v-852zM1003 1050q0 36 -5 60t-18 38t-35.5 20t-58.5 6h-523q-33 0 -55 -5.5t-35 -19t-18.5 -35.5t-5.5 -55v-799q0 -35 5.5 -57.5t19 -35.5t36 -18.5
t56.5 -5.5h519q35 0 57.5 5.5t36 19.5t19 37.5t5.5 58.5v786z" />
    <glyph glyph-name="P" unicode="P" horiz-adv-x="1240" 
d="M145 1174h-45v146h199v-84q78 26 155.5 56t158.5 46q58 12 120 12t121 -13.5t111 -41t91 -69.5t61.5 -99t21.5 -130v-211q-1 -128 -61.5 -187.5t-190.5 -59.5q-149 -2 -294 -2h-294v-536h-199v142h45v1031zM299 696h609q40 0 61.5 23t21.5 63v199q-3 70 -27 115t-63 70.5
t-89 32.5t-105 1t-112 -23t-108.5 -40.5t-95 -51.5t-72.5 -56q-20 -18 -20 -42v-291z" />
    <glyph glyph-name="Q" unicode="Q" horiz-adv-x="1249" 
d="M724 0h-375q-129 2 -189 63t-60 190v817q0 129 59.5 189.5t189.5 62.5h569q226 -2 231 -231v-853q-3 -235 -239 -238h-44v-219h-142v219zM1003 1051q0 36 -5 60t-18 38t-35.5 20t-58.5 6h-523q-33 0 -55 -5.5t-35 -19t-18.5 -35.5t-5.5 -55v-800q0 -35 5.5 -57.5
t19 -35.5t36 -18.5t56.5 -5.5h358v242h142v-242h19q35 0 57.5 5.5t36 19.5t19 37.5t5.5 58.5v787z" />
    <glyph glyph-name="R" unicode="R" horiz-adv-x="1240" 
d="M145 1177h-45v146h199v-84q78 26 155.5 56t158.5 46q58 12 120 12t121 -13.5t111 -41t91 -69.5t61.5 -99t21.5 -130v-214q-1 -128 -61.5 -187.5t-190.5 -59.5h-10l229 -463l-127 -81l-275 542q-103 -1 -202.5 -0.5t-202.5 0.5v-536h-199v142h45v1034zM299 696h609
q40 0 62 23t22 63l-1 202q-3 70 -27 115t-63 70.5t-89 32.5t-105 1t-112 -23t-108.5 -40.5t-95 -51.5t-72.5 -56q-20 -18 -20 -42v-294z" />
    <glyph glyph-name="S" unicode="S" horiz-adv-x="1169" 
d="M829 783q120 -2 178.5 -56.5t61.5 -174.5v-324q-2 -106 -54 -166t-151 -62h-764v219h146v-76h558q35 0 57.5 5.5t36 19t18.5 36t5 56.5v255q0 36 -5 59.5t-18.5 37t-36.5 18.5t-59 5h-702v480q0 100 57.5 151t156.5 55h754v-147h-686q-41 0 -66.5 -5.5t-40 -20.5
t-20 -40.5t-5.5 -65.5v-259h579z" />
    <glyph glyph-name="T" unicode="T" horiz-adv-x="1227" 
d="M100 1321h1027v-143h-444v-1034h45v-144h-188v1178h-440v143z" />
    <glyph glyph-name="U" unicode="U" horiz-adv-x="1287" 
d="M1043 1321h144v-1321h-771q-73 1 -124.5 16t-84 47t-47.5 83t-15 123v906h-45v146h193v-1038q0 -44 5 -71t20 -42t42.5 -20.5t72.5 -6.5h610v1178z" />
    <glyph glyph-name="V" unicode="V" horiz-adv-x="1236" 
d="M988 1321h148v-523q0 -17 -3 -37t-12 -32l-495 -732l-447 702q-14 25 -24.5 54.5t-10.5 57.5v366h-44v144h196v-472q0 -23 6.5 -47t19.5 -43l307 -486l323 475q14 25 25 54t11 57v462z" />
    <glyph glyph-name="W" unicode="W" horiz-adv-x="2080" 
d="M1832 1323h148v-525q0 -17 -3 -37t-12 -32l-495 -732l-410 643l-434 -643l-447 702q-14 25 -24.5 54.5t-10.5 57.5v366h-44v144h196v-472q0 -23 6.5 -47t19.5 -43l307 -486l323 475q14 23 24 51t12 54v471h152v-475q0 -23 6.5 -47t19.5 -43l307 -486l323 475q14 25 25 54
t11 57v464z" />
    <glyph glyph-name="X" unicode="X" horiz-adv-x="1314" 
d="M1115 758q37 -20 57 -47t29 -59.5t10.5 -70t1.5 -77.5v-503h-148v503q0 42 -5 68t-19.5 40.5t-40 19t-66.5 4.5h-549q-44 0 -71 -4.5t-41 -19t-18.5 -41.5t-4.5 -73v-497h-150v496q0 42 5 81t18.5 72t36 60t57.5 45v419h-46v147h186v-428q0 -30 4.5 -50.5t16.5 -33
t32 -18t52 -6.5h390q34 0 56 5.5t35 19t18 36t5 56.5l1 418h149z" />
    <glyph glyph-name="Y" unicode="Y" horiz-adv-x="1211" 
d="M963 1321h147l1 -433q-2 -119 -52 -181.5t-164 -68.5h-214v-495h45v-143h-195v636h-210q-105 6 -162 59.5t-59 158.5v467h151l-1 -404q0 -41 5 -67t19 -40.5t40 -19.5t67 -5h451q41 0 66.5 5.5t40 20.5t19.5 41t5 68v401z" />
    <glyph glyph-name="Z" unicode="Z" horiz-adv-x="1207" 
d="M960 143v169h147v-312h-1007l739 1173h-738v147h991l-732 -1177h600z" />
    <glyph glyph-name="bracketleft" unicode="[" horiz-adv-x="730" 
d="M630 1324v-135h-79q-32 0 -53 -5t-33.5 -17.5t-17.5 -34t-5 -53.5q-5 -55 -9.5 -93t-10.5 -65t-14.5 -47t-20.5 -39q-8 -13 -22.5 -28.5t-30.5 -30.5t-32 -29.5t-27 -25.5q-60 -59 0 -119q34 -35 59.5 -59t43.5 -43.5t29.5 -40t18 -48t9 -67.5t2.5 -99q0 -32 5 -53.5
t18 -34t33.5 -17.5t52.5 -5h84v-135h-116q-106 2 -159.5 52.5t-55.5 157.5q0 43 -5 82t-18 74t-35.5 67t-57.5 62q-34 29 -54.5 64.5t-26 74t6.5 78t42 76.5q25 31 53 57.5t53 57.5q17 20 26.5 44.5t14 52t5.5 56.5t1 58q2 107 55 157.5t159 52.5h112z" />
    <glyph glyph-name="backslash" unicode="\" horiz-adv-x="811" 
d="M711 59l-135 -57l-476 1264l133 54z" />
    <glyph glyph-name="bracketright" unicode="]" horiz-adv-x="731" 
d="M213 1324q106 -2 159 -52.5t55 -157.5q0 -29 1 -58t5.5 -56.5t14 -52t26.5 -44.5q25 -31 53 -57.5t53 -57.5q30 -37 42 -76.5t6.5 -78t-26 -74t-54.5 -64.5q-35 -30 -57.5 -62t-35.5 -67t-18 -74t-5 -82q-2 -107 -55.5 -157.5t-159.5 -52.5h-116v135h84q31 0 52 5
t34 17.5t18 34t5 53.5q0 59 2.5 99t9 67.5t18 48t29.5 40t43.5 43.5t59.5 59q60 60 0 119q-11 11 -27 25.5t-32 29.5t-30.5 30.5t-22.5 28.5q-12 19 -20.5 39t-14.5 47t-11 65t-9 93q0 32 -5 53.5t-17.5 34t-33.5 17.5t-53 5h-79v135h112z" />
    <glyph glyph-name="asciicircum" unicode="^" horiz-adv-x="866" 
d="M766 1042l-117 -88l-158 272q-16 23 -29 34.5t-25.5 12t-25.5 -10.5t-28 -34l-174 -274l-109 82l195 313q27 38 61.5 57.5t71 21t73 -15.5t67.5 -52z" />
    <glyph glyph-name="underscore" unicode="_" horiz-adv-x="848" 
d="M748 143v-141h-648v141h648z" />
    <glyph glyph-name="a" unicode="a" horiz-adv-x="1044" 
d="M749 95q-78 -63 -159.5 -86t-172.5 -16q-61 4 -118 33t-101.5 74t-71 102t-26.5 118v338q3 61 31 97t72.5 54.5t101 24t115.5 5.5h524v-143h-45v-696h-150v95zM339 689q-55 -2 -75.5 -25t-21.5 -78l1 -218q0 -81 31.5 -131t81 -74t109 -23t116.5 22.5t104 62t70 95.5v369
h-416z" />
    <glyph glyph-name="b" unicode="b" horiz-adv-x="1044" 
d="M295 0h-150v1178h-45v143h189v-482h335q59 0 115.5 -5.5t101 -24t72.5 -54.5t31 -97v-338q0 -61 -26.5 -118t-71 -102t-101.5 -74t-118 -33q-91 -7 -172.5 16t-159.5 86v-95zM289 689v-369q23 -55 70 -95.5t104 -62t116.5 -22.5t109 23t81 74t31.5 131l1 218
q-1 55 -21.5 78t-75.5 25h-416z" />
    <glyph glyph-name="c" unicode="c" horiz-adv-x="1010" 
d="M841 839v-202h-145v48h-383q-19 0 -31 -7t-18.5 -18.5t-9.5 -26t-4 -29.5l1 -264q6 -65 38 -110.5t80 -67.5t106 -19t116 35q66 37 112 83t86 107l121 -61q-50 -81 -115 -146t-139.5 -105t-155.5 -51.5t-163 14.5q-114 34 -174.5 122t-62.5 227v240q2 109 52.5 167
t159.5 63z" />
    <glyph glyph-name="d" unicode="d" horiz-adv-x="1044" 
d="M749 95q-78 -63 -159.5 -86t-172.5 -16q-61 4 -118 33t-101.5 74t-71 102t-26.5 118v338q3 61 31 97t72.5 54.5t101 24t115.5 5.5l335 -1v483h189v-143h-45v-1178h-150v95zM339 689q-55 -2 -75.5 -25t-21.5 -78l1 -218q0 -81 31.5 -131t81 -74t109 -23t116.5 22.5t104 62
t70 95.5v369h-416z" />
    <glyph glyph-name="e" unicode="e" horiz-adv-x="938" 
d="M838 245h-583v-45q0 -21 9.5 -32.5t24.5 -17t32.5 -6.5t32.5 -1h474v-143h-548q-93 5 -136 60t-44 149v412q2 105 60 159.5t167 58.5h511v-594zM690 689h-359q-34 -2 -57.5 -19t-23.5 -55v-222h440v296z" />
    <glyph glyph-name="f" unicode="f" horiz-adv-x="892" 
d="M217 0v143h45v546h-162v150h162v221q0 137 61 199t198 62h271v-147h-241q-45 0 -72.5 -5t-42 -19.5t-19.5 -41.5t-5 -72v-197h266v-150h-261v-689h-200z" />
    <glyph glyph-name="g" unicode="g" horiz-adv-x="1014" 
d="M914 839v-962q0 -78 -24 -142t-66 -111t-98.5 -76t-121 -37t-133.5 5.5t-136 52.5q-129 77 -212 203l92 115q34 -61 87.5 -106t114 -69.5t121 -27.5t109.5 20.5t80 74.5t31 133v189q-69 -49 -138.5 -76t-150.5 -25q-175 6 -269.5 95t-99.5 262v263q1 105 48 159.5
t153 59.5h613zM764 692h-438q-25 0 -40 -8.5t-23.5 -22t-11.5 -32t-3 -37.5l1 -274q8 -76 50 -112.5t117 -50.5q79 -15 144.5 9t122.5 76q43 40 62 84.5t19 107.5v260z" />
    <glyph glyph-name="h" unicode="h" horiz-adv-x="1087" 
d="M145 0v1177h-45v144h194v-482h405q123 -5 180 -63.5t58 -180.5v-452h50v-143h-200v562q0 40 -4.5 65t-18.5 39t-39 19t-65 6h-363v-691h-152z" />
    <glyph glyph-name="i" unicode="i" horiz-adv-x="390" 
d="M289 0h-143v695h-46v144h189v-839zM146 1082h144v-139h-144v139z" />
    <glyph glyph-name="j" unicode="j" horiz-adv-x="680" 
d="M0 -464q5 42 10 73.5t11 70.5q25 -9 53.5 -14.5t55.5 -9.5q302 -33 302 266v773h-68v144h216v-943q0 -97 -27 -170t-78 -122t-124.5 -73.5t-166.5 -24.5q-45 0 -93.5 6t-90.5 24zM432 1152h148v-149h-148v149z" />
    <glyph glyph-name="k" unicode="k" horiz-adv-x="1085" 
d="M293 634h317q24 0 39 8.5t24 23t12 32.5t3 38v411h150v-416q-1 -44 -10.5 -82t-30.5 -69t-54.5 -54.5t-81.5 -38.5l324 -420l-117 -93l-315 408q-28 36 -57 58t-60.5 32.5t-67 10.5t-75.5 -8v-477h-148v1176h-45v147h193v-687z" />
    <glyph glyph-name="l" unicode="l" horiz-adv-x="776" 
d="M100 1320h192v-1063q1 -35 6.5 -57t19 -35t36 -17.5t57.5 -4.5h265v-143h-310q-105 2 -162 58.5t-59 165.5v969h-45v127z" />
    <glyph glyph-name="m" unicode="m" horiz-adv-x="1564" 
d="M684 0v692h-340q-48 -2 -70 -27t-23 -70v-595h-150v559q-1 60 9.5 110.5t37 87.5t69.5 58.5t107 23.5h1076v-697h64v-142h-211v689h-419v-689h-150z" />
    <glyph glyph-name="n" unicode="n" horiz-adv-x="983" 
d="M344 692q-48 -2 -70 -27t-23 -70v-595h-150v559q-1 60 9.5 110.5t37 87.5t69.5 58.5t107 23.5h495v-697h64v-142h-211v691z" />
    <glyph glyph-name="o" unicode="o" horiz-adv-x="990" 
d="M890 238q-3 -235 -239 -238h-302q-129 2 -189 63t-60 190v334q0 129 59.5 189.5t189.5 62.5h310q226 -2 231 -231v-370zM744 568q0 36 -5 60t-18 38t-35.5 20t-58.5 6h-264q-33 0 -55 -5.5t-35 -19t-18.5 -35.5t-5.5 -55v-317q0 -35 5.5 -57.5t19 -35.5t36 -18.5
t56.5 -5.5h260q35 0 57.5 5.5t36 19.5t19 37.5t5.5 58.5v304z" />
    <glyph glyph-name="p" unicode="p" horiz-adv-x="1058" 
d="M145 -153v992h586q111 -2 168 -59.5t59 -163.5v-255q-4 -150 -76 -237.5t-208 -112.5q-87 -16 -169 -4t-158 63q-11 8 -24 15t-33 18v-398h-190v142h45zM295 691l-1 -297q0 -24 8 -49t23 -44q30 -39 64.5 -70.5t74 -51t85.5 -25.5t100 6q34 8 63 20.5t50.5 31.5t34 44.5
t13.5 60.5l-2 290q0 24 -8 40t-21.5 25t-31.5 13t-37 4z" />
    <glyph glyph-name="q" unicode="q" horiz-adv-x="1187" 
d="M1087 -152v-143h-319v398q-20 -11 -33 -18t-24 -15q-76 -51 -158 -63t-169 4q-136 25 -208 112.5t-76 237.5v255q2 106 59 163.5t168 59.5h586v-991h174zM348 689q-20 0 -37.5 -4t-31 -13t-21.5 -25t-8 -40l-2 -290q1 -35 13.5 -60.5t34 -44.5t50.5 -31.5t63 -20.5
q53 -12 99 -6t86 25.5t74.5 51t64.5 70.5q15 19 23 44t8 49l-1 297z" />
    <glyph glyph-name="r" unicode="r" horiz-adv-x="852" 
d="M100 143h45v549h-45v147h196v-114q51 48 106 73.5t112.5 36t117 9.5t120.5 -6v-143q-44 2 -94 1t-100.5 -8.5t-97 -23t-82.5 -43t-57.5 -68.5t-21.5 -99v-454h-199v143z" />
    <glyph glyph-name="s" unicode="s" horiz-adv-x="992" 
d="M100 227h145v-84h422q28 2 44.5 17.5t23.5 37t4.5 46t-13 45t-29 34t-42.5 12.5h-555v293q9 94 62 149t150 62h515v-211h-142v60l-366 -1q-18 -1 -31 -9.5t-22 -21.5t-13 -29.5t-4 -33.5v-110h406q53 3 95 -16t72.5 -52t47.5 -77t20.5 -90t-8 -90.5t-39 -79.5t-71 -56.5
t-105.5 -21.5h-567v227z" />
    <glyph glyph-name="t" unicode="t" horiz-adv-x="788" 
d="M100 692v147h162v165h-91v147h243v-312h274v-147h-273v-414q0 -42 5.5 -68t20.5 -40.5t41.5 -20t69.5 -6.5h112v-143h-204q-102 10 -147 69.5t-45 167.5l-1 455h-167z" />
    <glyph glyph-name="u" unicode="u" horiz-adv-x="929" 
d="M685 839h144v-839h-413q-73 1 -124.5 16t-84 47t-47.5 83t-15 123v424h-45v146h193v-556q0 -44 5 -71t20 -42t42.5 -20.5t72.5 -6.5h252v696z" />
    <glyph glyph-name="v" unicode="v" horiz-adv-x="1045" 
d="M793 839h151v-230q1 -42 -9.5 -75t-35.5 -65q-91 -117 -179.5 -232.5t-182.5 -238.5l-364 478q-9 11 -14.5 27.5t-8.5 34.5t-4 36t-1 32v84h-45v149h196v-211q0 -21 8.5 -43.5t19.5 -40.5l216 -291l240 314q9 11 10.5 28t1.5 33z" />
    <glyph glyph-name="w" unicode="w" horiz-adv-x="1693" 
d="M1441 839h151v-230q1 -42 -9.5 -75t-35.5 -65q-91 -117 -179.5 -232.5t-182.5 -238.5l-323 424q-81 -106 -160.5 -210.5t-164.5 -213.5l-364 478q-9 11 -14.5 27.5t-8.5 34.5t-4 36t-1 32v84h-45v149h196v-211q0 -21 8.5 -43.5t19.5 -40.5l216 -291l240 314q9 11 10.5 28
t1.5 33l1 211h151v-211q0 -21 8.5 -43.5t19.5 -40.5l216 -291l240 314q9 11 10.5 28t1.5 33z" />
    <glyph glyph-name="x" unicode="x" horiz-adv-x="1044" 
d="M198 698h-45v141h189v-239q1 -54 21 -75.5t72 -24.5h171q55 3 75.5 25.5t21.5 77.5v236h138v-326q0 -14 4.5 -29t12.5 -22q42 -30 63 -72t22 -90l1 -300h-147l-1 258q-2 27 -7 45t-16.5 29.5t-29.5 16t-46 4.5h-340q-34 -1 -56 -6t-34.5 -18t-17.5 -34.5t-5 -55.5v-239
h-144v326q2 51 28.5 90t69.5 58v224z" />
    <glyph glyph-name="y" unicode="y" horiz-adv-x="1001" 
d="M755 839h146l-1 -575q2 -77 -15 -127t-53 -79.5t-91.5 -42t-129.5 -13.5v-151h51v-146h-204v295q-34 4 -63.5 5.5t-56.5 6.5q-52 10 -88.5 27.5t-60 45t-34 66t-10.5 91.5v452h-45v145h194v-560q0 -43 5 -69.5t19.5 -41.5t40.5 -20t69 -5h207q36 0 59 5.5t36.5 19t19 37
t5.5 59.5v575z" />
    <glyph glyph-name="z" unicode="z" horiz-adv-x="953" 
d="M581 695h-463v144h735l-468 -696h309v83h144v-226h-738z" />
    <glyph glyph-name="braceleft" unicode="{" horiz-adv-x="677" 
d="M577 839v-147h-194q-43 -1 -69.5 -6t-41 -19.5t-19.5 -40.5t-5 -69v-278q0 -43 5.5 -69t20 -40.5t41 -20t68.5 -6.5h192v-143h-289q-94 11 -138.5 68.5t-47.5 160.5v377q10 229 238 233h239z" />
    <glyph glyph-name="bar" unicode="|" horiz-adv-x="334" 
d="M234 0h-134l1 1321h133v-1321z" />
    <glyph glyph-name="braceright" unicode="}" horiz-adv-x="677" 
d="M339 839q228 -4 238 -233v-377q-3 -103 -47.5 -160.5t-138.5 -68.5h-291v143h194q42 1 68.5 6.5t41 20t20 40.5t5.5 69v278q0 43 -5 69t-19.5 40.5t-41 19.5t-69.5 6h-194v147h239z" />
    <glyph glyph-name="asciitilde" unicode="~" horiz-adv-x="850" 
d="M100 440q17 88 56 144q54 75 142 75q49 0 134 -47q82 -48 113 -48q24 0 41 15q25 22 37 76l127 -35q-17 -88 -57 -143q-55 -76 -141 -76q-49 0 -134 48q-85 47 -114 47q-24 0 -41 -14q-23 -21 -36 -77z" />
    <glyph glyph-name="uni00A0" unicode="&#xa0;" 
 />
    <glyph glyph-name="guillemotleft" unicode="&#xab;" horiz-adv-x="1190" 
d="M711 143q-42 -1 -75 9.5t-65 35.5q-117 91 -232.5 179.5t-238.5 182.5l478 364q11 9 27.5 14.5t34.5 8.5t36 4t32 1l22 -151q-21 0 -43.5 -8.5t-40.5 -19.5l-291 -216l314 -240q11 -9 28 -10.5t33 -1.5zM1071 143q-42 -1 -75 9.5t-65 35.5q-117 91 -232.5 179.5
t-238.5 182.5l478 364q11 9 27.5 14.5t34.5 8.5t36 4t32 1l22 -151q-21 0 -43.5 -8.5t-40.5 -19.5l-291 -216l314 -240q11 -9 28 -10.5t33 -1.5z" />
    <glyph glyph-name="guillemotright" unicode="&#xbb;" horiz-adv-x="1190" 
d="M460 295q16 0 33 1.5t28 10.5l314 240l-291 216q-18 11 -40.5 19.5t-43.5 8.5l22 151q14 0 32 -1t36 -4t34.5 -8.5t27.5 -14.5l478 -364q-123 -94 -238.5 -182.5t-232.5 -179.5q-32 -25 -65 -35.5t-75 -9.5zM100 295q16 0 33 1.5t28 10.5l314 240l-291 216
q-18 11 -40.5 19.5t-43.5 8.5l22 151q14 0 32 -1t36 -4t34.5 -8.5t27.5 -14.5l478 -364q-123 -94 -238.5 -182.5t-232.5 -179.5q-32 -25 -65 -35.5t-75 -9.5z" />
    <glyph glyph-name="multiply" unicode="&#xd7;" horiz-adv-x="1056" 
d="M956 146l-101 -104l-329 329l-327 -328l-99 107l324 324l-285 271l114 91l273 -260l252 260l109 -95l-259 -267z" />
    <glyph glyph-name="divide" unicode="&#xf7;" horiz-adv-x="848" 
d="M748 481v-141h-648v141h648zM329 143h143v-143h-143v143zM329 795h143v-143h-143v143z" />
    <glyph glyph-name="uni060C" unicode="&#x60c;" horiz-adv-x="343" 
d="M100 274h143v-331h-143v331z" />
    <glyph glyph-name="uni061B" unicode="&#x61b;" horiz-adv-x="343" 
d="M100 627h143v-331h-143v331zM100 0h143v143h-143v-143z" />
    <glyph glyph-name="uni061F" unicode="&#x61f;" horiz-adv-x="1000" 
d="M523 643h-423v427q0 129 60 189.5t189 62.5h510q21 0 41 -5v-318h-147v174h-408q-29 -1 -47.5 -7t-29.5 -18.5t-15 -34t-4 -52.5v-277h421v-555h-147v414zM529 2v142h143v-142h-143z" />
    <glyph glyph-name="uni0621" unicode="&#x621;" horiz-adv-x="929" 
d="M329 351q8 -95 63.5 -148t140.5 -60h296v-143h-729v143h138q-30 42 -46.5 94t-16.5 115v65q1 84 30.5 150.5t80.5 113.5t121 72t152 25q62 0 123 -11.5t122 -31.5v-205h-151v81q-29 7 -54 11t-45 4q-50 0 -91 -15t-70.5 -44.5t-46 -72.5t-17.5 -99v-44z" />
    <glyph glyph-name="uni0622" unicode="&#x622;" horiz-adv-x="597" 
d="M398 0h-143v1151h-67v144h210v-1295zM100 1492q11 54 34 88q32 46 86 46q26 0 84 -29q45 -29 68 -29q17 0 26 9q15 15 21 46l78 -21q-9 -50 -34 -88q-36 -46 -87 -46q-28 0 -82 29q-53 29 -69 29q-17 0 -26 -9q-15 -15 -22 -46z" />
    <glyph glyph-name="uni0623" unicode="&#x623;" horiz-adv-x="515" 
d="M334 0h-143v1178h-67v143h210v-1321zM199 1625q3 -41 27.5 -64t61.5 -26h127v-61h-315v61h59q-26 37 -26 91v28q0 36 12.5 65t34.5 49t52.5 31t66.5 11q26 0 52.5 -5t53.5 -13v-89h-66v34q-12 4 -23 5.5t-19 1.5q-44 0 -70.5 -25.5t-27.5 -74.5v-19z" />
    <glyph glyph-name="uni0624" unicode="&#x624;" horiz-adv-x="1084" 
d="M772 0h-426q-229 5 -243 210q-2 35 -2 83.5t1.5 99.5t4.5 99t8 83q15 97 71 162.5t153 92.5q117 32 226 10.5t206 -102.5v101h213v-143h-68v-824q-2 -92 -36 -163t-93.5 -118.5t-141.5 -68t-179 -10.5q-45 5 -84.5 13.5t-81.5 22.5l16 150q13 -5 42.5 -11.5t62.5 -12.5
t63 -10.5t45 -4.5q118 2 176 56.5t67 171.5v113zM772 531q0 20 -26 47.5t-66 53.5t-89 45.5t-95 23.5q-122 7 -180 -49.5t-66 -187.5v-188q0 -41 5 -67t19 -40.5t39 -20t66 -5.5h393v388zM465 1241q3 -41 27.5 -64t61.5 -26h127v-61h-315v61h59q-26 37 -26 91v28
q0 36 12.5 65t34.5 49t52.5 31t66.5 11q26 0 52.5 -5t53.5 -13v-89h-66v34q-12 4 -23 5.5t-19 1.5q-44 0 -70.5 -25.5t-27.5 -74.5v-19z" />
    <glyph glyph-name="uni0625" unicode="&#x625;" horiz-adv-x="515" 
d="M338 0h-143v1177h-67v144h210v-1321zM199 -338q3 -41 27.5 -64t61.5 -26h127v-61h-315v61h59q-26 37 -26 91v28q0 36 12.5 65t34.5 49t52.5 31t66.5 11q26 0 52.5 -5t53.5 -13v-89h-66v34q-12 4 -23 5.5t-19 1.5q-44 0 -70.5 -25.5t-27.5 -74.5v-19z" />
    <glyph glyph-name="uni0626" unicode="&#x626;" horiz-adv-x="1423" 
d="M218 839q3 -41 27.5 -64t61.5 -26h127v-61h-315v61h59q-26 37 -26 91v28q0 36 12.5 65t34.5 49t52.5 31t66.5 11q26 0 52.5 -5t53.5 -13v-89h-66v34q-12 4 -23 5.5t-19 1.5q-44 0 -70.5 -25.5t-27.5 -74.5v-19zM1054 91h-361q-105 2 -162 58.5t-59 165.5v164q2 92 38 164
t97.5 118.5t144.5 65.5t181 6q103 -14 204 -50.5t186 -87.5l-62 -143q-18 10 -56.5 27.5t-85.5 36.5t-98 36t-94 26q-64 13 -120 4.5t-97 -37.5t-65.5 -77t-25.5 -114v-106q1 -35 6.5 -57t19 -35t36 -17.5t57.5 -4.5h361q105 -2 162 -58.5t59 -165.5q0 -44 -6 -87
q-11 -75 -41 -135t-77 -101.5t-109.5 -64t-137.5 -23.5h-479q-75 1 -138 23.5t-111 64t-79 101.5t-42 135v437h215v-146h-68v-247q10 -113 78.5 -168t186.5 -57h395q119 2 188 58t78 172v5q-1 35 -6.5 57t-19 35t-36 17.5t-57.5 4.5z" />
    <glyph glyph-name="uni0627" unicode="&#x627;" horiz-adv-x="410" 
d="M310 0h-143v1177h-67v144h210v-1321z" />
    <glyph glyph-name="uni0628" unicode="&#x628;" horiz-adv-x="1830" 
d="M364 750q-48 -63 -77 -134.5t-39 -159.5q-15 -147 52.5 -228.5t214.5 -84.5h949q35 0 57.5 4.5t36 17.5t19 35t6.5 57v436h-68v146h215v-615q-2 -109 -59 -165.5t-162 -58.5h-1036q-75 1 -137.5 23.5t-109.5 64t-77 101.5t-41 135q-8 57 -7 115t12 115q15 81 46.5 151
t79.5 133zM872 -146h148v-149h-148v149z" />
    <glyph glyph-name="uni0629" unicode="&#x629;" horiz-adv-x="1084" 
d="M916 696v-696h-570q-229 5 -243 210q-2 35 -2 83.5t1.5 99.5t4.5 99t8 83q15 97 71 162.5t153 92.5q117 32 226 10.5t206 -102.5v101h213v-143h-68zM772 531q0 20 -26 47.5t-66 53.5t-89 45.5t-95 23.5q-122 7 -180 -49.5t-66 -187.5v-188q0 -41 5 -67t19 -40.5t39 -20
t66 -5.5h393v388zM322 1152h148v-149h-148v149zM548 1152h148v-149h-148v149z" />
    <glyph glyph-name="uni062A" unicode="&#x62a;" horiz-adv-x="1830" 
d="M364 750q-48 -63 -77 -134.5t-39 -159.5q-15 -147 52.5 -228.5t214.5 -84.5h949q35 0 57.5 4.5t36 17.5t19 35t6.5 57v436h-68v146h215v-615q-2 -109 -59 -165.5t-162 -58.5h-1036q-75 1 -137.5 23.5t-109.5 64t-77 101.5t-41 135q-8 57 -7 115t12 115q15 81 46.5 151
t79.5 133zM761 988h148v-149h-148v149zM987 988h148v-149h-148v149z" />
    <glyph glyph-name="uni062B" unicode="&#x62b;" horiz-adv-x="1830" 
d="M364 750q-48 -63 -77 -134.5t-39 -159.5q-15 -147 52.5 -228.5t214.5 -84.5h949q35 0 57.5 4.5t36 17.5t19 35t6.5 57v436h-68v146h215v-615q-2 -109 -59 -165.5t-162 -58.5h-1036q-75 1 -137.5 23.5t-109.5 64t-77 101.5t-41 135q-8 57 -7 115t12 115q15 81 46.5 151
t79.5 133zM761 988h148v-149h-148v149zM987 988h148v-149h-148v149zM873 1194h148v-149h-148v149z" />
    <glyph glyph-name="uni062C" unicode="&#x62c;" horiz-adv-x="1158" 
d="M597 833q98 13 181.5 -6t145 -66t97 -119.5t37.5 -165.5v-476h-543q-147 -4 -214 -82.5t-52 -225.5q10 -89 44.5 -167t88.5 -145l-122 -90q-93 114 -134 247.5t-18 288.5q23 153 117.5 234t247.5 83h430v312q-1 66 -24 114t-63 76.5t-94.5 37t-118.5 -4.5q-43 -9 -94 -26
t-98 -36t-85.5 -36.5t-56.5 -27.5l-62 143q85 51 186 87.5t204 50.5zM614 -152h142v-143h-142v143z" />
    <glyph glyph-name="uni062D" unicode="&#x62d;" horiz-adv-x="1158" 
d="M597 833q98 13 181.5 -6t145 -66t97 -119.5t37.5 -165.5v-476h-543q-147 -4 -214 -82.5t-52 -225.5q10 -89 44.5 -167t88.5 -145l-122 -90q-93 114 -134 247.5t-18 288.5q23 153 117.5 234t247.5 83h430v312q-1 66 -24 114t-63 76.5t-94.5 37t-118.5 -4.5q-43 -9 -94 -26
t-98 -36t-85.5 -36.5t-56.5 -27.5l-62 143q85 51 186 87.5t204 50.5z" />
    <glyph glyph-name="uni062E" unicode="&#x62e;" horiz-adv-x="1158" 
d="M432 1152h148v-149h-148v149zM597 833q98 13 181.5 -6t145 -66t97 -119.5t37.5 -165.5v-476h-543q-147 -4 -214 -82.5t-52 -225.5q10 -89 44.5 -167t88.5 -145l-122 -90q-93 114 -134 247.5t-18 288.5q23 153 117.5 234t247.5 83h430v312q-1 66 -24 114t-63 76.5
t-94.5 37t-118.5 -4.5q-43 -9 -94 -26t-98 -36t-85.5 -36.5t-56.5 -27.5l-62 143q85 51 186 87.5t204 50.5z" />
    <glyph glyph-name="uni062F" unicode="&#x62f;" horiz-adv-x="1079" 
d="M143 646v193h579q134 0 195.5 -61t61.5 -194v-584h-879v143h732v415q-1 41 -6.5 67t-20 40.5t-39.5 19.5t-66 5h-408v-44h-149z" />
    <glyph glyph-name="uni0630" unicode="&#x630;" horiz-adv-x="1077" 
d="M141 646v193h579q134 0 195.5 -61t61.5 -194v-584h-877v143h730v415q-1 41 -6.5 67t-20 40.5t-39.5 19.5t-66 5h-408v-44h-149zM268 1152h148v-149h-148v149z" />
    <glyph glyph-name="uni0631" unicode="&#x631;" horiz-adv-x="680" 
d="M0 -464q5 42 10 73.5t11 70.5q25 -9 53.5 -14.5t55.5 -9.5q302 -33 302 266v773h-68v144h216v-943q0 -97 -27 -170t-78 -122t-124.5 -73.5t-166.5 -24.5q-45 0 -93.5 6t-90.5 24z" />
    <glyph glyph-name="uni0632" unicode="&#x632;" horiz-adv-x="680" 
d="M0 -464q5 42 10 73.5t11 70.5q25 -9 53.5 -14.5t55.5 -9.5q302 -33 302 266v773h-68v144h216v-943q0 -97 -27 -170t-78 -122t-124.5 -73.5t-166.5 -24.5q-45 0 -93.5 6t-90.5 24zM432 1152h148v-149h-148v149z" />
    <glyph glyph-name="uni0633" unicode="&#x633;" horiz-adv-x="2143" 
d="M318 191q-30 -49 -48.5 -109.5t-22.5 -122t8.5 -119t44.5 -101t85 -67t130 -16.5h253q34 0 56.5 5t36 18t19.5 35t7 56v228v544h-68v145h215v-544h355v615h152v-615h144t138 1q26 1 40 14.5t21 34.5t8 47.5t1 53.5v545h150v-567q0 -74 -15 -126t-47.5 -84.5t-84.5 -47
t-126 -14.5h-736v-149.5t-2 -119.5q-2 -109 -58.5 -165.5t-161.5 -56.5h-339q-104 5 -176.5 44t-117 101.5t-63.5 141t-15.5 162t27.5 166.5t64 152z" />
    <glyph glyph-name="uni0634" unicode="&#x634;" horiz-adv-x="2143" 
d="M318 191q-30 -49 -48.5 -109.5t-22.5 -122t8.5 -119t44.5 -101t85 -67t130 -16.5h253q34 0 56.5 5t36 18t19.5 35t7 56v228v544h-68v145h215v-544h355v615h152v-615h144t138 1q26 1 40 14.5t21 34.5t8 47.5t1 53.5v545h150v-567q0 -74 -15 -126t-47.5 -84.5t-84.5 -47
t-126 -14.5h-736v-149.5t-2 -119.5q-2 -109 -58.5 -165.5t-161.5 -56.5h-339q-104 5 -176.5 44t-117 101.5t-63.5 141t-15.5 162t27.5 166.5t64 152zM1257 1152h148v-149h-148v149zM1483 1152h148v-149h-148v149zM1369 1358h148v-149h-148v149z" />
    <glyph glyph-name="uni0635" unicode="&#x635;" horiz-adv-x="2159" 
d="M1035 0v-149.5t-2 -119.5q-2 -109 -58.5 -165.5t-161.5 -56.5h-339q-99 -5 -170.5 32.5t-117 101.5t-66.5 147t-19 170t25.5 169.5t66.5 146.5l126 -85q-30 -49 -48.5 -109.5t-22 -122t8.5 -119t44 -100.5t85 -66.5t130 -17.5h253q34 0 56.5 5t36 18t19.5 35t7 56v772
h-68v145h215v-109q97 77 189 133t184.5 87.5t187.5 38.5t199 -13q57 -12 104.5 -42t81.5 -74t53.5 -99.5t21.5 -117.5q1 -39 1.5 -63t1 -41.5t0.5 -31t-0.5 -30.5t-1 -41t-1.5 -62q-1 -112 -55.5 -164.5t-166.5 -57.5h-799zM1735 683q-76 16 -157.5 0t-159 -50t-147.5 -78
t-122.5 -85t-83 -70.5t-30.5 -33.5v-223h790q42 0 63 24t21 66q0 36 0.5 58t0.5 36.5t0.5 25.5t0.5 25.5t-0.5 36.5t-1.5 58q-5 91 -47 141.5t-127 68.5z" />
    <glyph glyph-name="uni0636" unicode="&#x636;" horiz-adv-x="2159" 
d="M1035 0v-149.5t-2 -119.5q-2 -109 -58.5 -165.5t-161.5 -56.5h-339q-99 -5 -170.5 32.5t-117 101.5t-66.5 147t-19 170t25.5 169.5t66.5 146.5l126 -85q-30 -49 -48.5 -109.5t-22 -122t8.5 -119t44 -100.5t85 -66.5t130 -17.5h253q34 0 56.5 5t36 18t19.5 35t7 56v772
h-68v145h215v-109q97 77 189 133t184.5 87.5t187.5 38.5t199 -13q57 -12 104.5 -42t81.5 -74t53.5 -99.5t21.5 -117.5q1 -39 1.5 -63t1 -41.5t0.5 -31t-0.5 -30.5t-1 -41t-1.5 -62q-1 -112 -55.5 -164.5t-166.5 -57.5h-799zM1735 683q-76 16 -157.5 0t-159 -50t-147.5 -78
t-122.5 -85t-83 -70.5t-30.5 -33.5v-223h790q42 0 63 24t21 66q0 36 0.5 58t0.5 36.5t0.5 25.5t0.5 25.5t-0.5 36.5t-1.5 58q-5 91 -47 141.5t-127 68.5zM1346 1152h148v-149h-148v149z" />
    <glyph glyph-name="uni0637" unicode="&#x637;" horiz-adv-x="1472" 
d="M100 143h100v1034h-67v146h214v-745q97 77 189.5 133t185 88t188 39t198.5 -14q57 -12 104.5 -42t81.5 -74t53.5 -99.5t21.5 -117.5q1 -39 1.5 -63t1 -41.5t0.5 -31t-0.5 -30.5t-1 -41t-1.5 -62q-2 -112 -56 -164.5t-166 -57.5h-1047v143zM1048 683q-76 16 -157.5 0
t-159.5 -50t-148 -78t-122.5 -85t-83 -70.5t-30.5 -33.5v-223h791q42 0 63 24t21 66q0 36 0.5 58t0.5 36.5t0.5 25.5t0.5 25.5t-0.5 36.5t-1.5 58q-5 91 -47 141.5t-127 68.5z" />
    <glyph glyph-name="uni0638" unicode="&#x638;" horiz-adv-x="1472" 
d="M100 143h100v1032h-67v146h214v-743q97 77 189.5 133t185 88t188 39t198.5 -14q57 -12 104.5 -42t81.5 -74t53.5 -99.5t21.5 -117.5q1 -39 1.5 -63t1 -41.5t0.5 -31t-0.5 -30.5t-1 -41t-1.5 -62q-2 -112 -56 -164.5t-166 -57.5h-1047v143zM1048 683q-76 16 -157.5 0
t-159.5 -50t-148 -78t-122.5 -85t-83 -70.5t-30.5 -33.5v-223h791q42 0 63 24t21 66q0 36 0.5 58t0.5 36.5t0.5 25.5t0.5 25.5t-0.5 36.5t-1.5 58q-5 91 -47 141.5t-127 68.5zM726 1152h148v-149h-148v149z" />
    <glyph glyph-name="uni0639" unicode="&#x639;" horiz-adv-x="1220" 
d="M479 351q8 -95 63.5 -148t140.5 -60h437v-143h-606q-135 -4 -202 -68.5t-67 -187.5q0 -106 37.5 -197.5t100.5 -169.5l-124 -92q-33 43 -62 94t-50.5 107t-34 116t-12.5 121q0 157 56.5 254.5t168.5 139.5q32 13 68 20q-32 42 -50 95.5t-18 119.5v125q1 84 30.5 150.5
t80.5 113.5t121 72t152 25q105 0 208 -30.5t201 -81.5l-66 -144q-36 16 -82.5 34.5t-94 34t-92.5 25.5t-79 10q-50 0 -91 -15t-70.5 -44.5t-46 -72.5t-17.5 -99v-104z" />
    <glyph glyph-name="uni063A" unicode="&#x63a;" horiz-adv-x="1220" 
d="M677 1152h148v-149h-148v149zM479 455q1 56 17.5 99t46 72.5t70.5 44.5t91 15q34 0 79 -10t92.5 -25.5t94 -34t82.5 -34.5l66 144q-98 51 -201 81.5t-208 30.5q-82 0 -152 -25t-121 -72t-80.5 -113.5t-30.5 -150.5v-125q0 -66 18 -119.5t50 -95.5q-36 -7 -68 -20
q-112 -42 -168.5 -139.5t-56.5 -254.5q0 -61 12.5 -121t34 -116t50.5 -107t62 -94l124 92q-63 78 -100.5 169.5t-37.5 197.5q0 123 67 187.5t202 68.5h606v143h-437q-85 7 -140.5 60t-63.5 148v104z" />
    <glyph glyph-name="uni0640" unicode="&#x640;" horiz-adv-x="721" 
d="M-10 0v143h731v-143h-731z" />
    <glyph glyph-name="uni0641" unicode="&#x641;" horiz-adv-x="1660" 
d="M318 686q-30 -48 -48 -109t-21.5 -123.5t9 -121t44.5 -102.5t84.5 -68.5t128.5 -18.5h688q41 0 68.5 7t44 20t23.5 31.5t7 41.5h-66q-91 0 -180.5 -0.5t-179.5 0.5q-112 2 -172.5 52.5t-67.5 153.5q-4 69 -5.5 138t9.5 138q15 97 74.5 163t156.5 93q103 29 198.5 17.5
t185.5 -74.5l41 -30v99h220v-144h-66v-615q-1 -109 -48.5 -168t-153.5 -66h-819q-74 -3 -132.5 18t-102.5 60t-73.5 92.5t-45 114.5t-18.5 127t6.5 130.5t31 123t53.5 105.5zM1340 668q-31 81 -102 129t-164 55q-123 8 -183.5 -47.5t-62.5 -187.5l-1 -92q-1 -42 4 -68
t19.5 -40.5t40 -20t66.5 -6.5h383v278zM953 1259h148v-149h-148v149z" />
    <glyph glyph-name="uni0642" unicode="&#x642;" horiz-adv-x="1469" 
d="M364 260q-40 -44 -69 -108t-41 -134t-5.5 -138.5t36.5 -121.5t86 -83t143 -23h525q35 0 57.5 4.5t35.5 17.5t18.5 35t6.5 57v234h-426q-229 5 -243 210q-2 35 -2 83.5t1.5 99.5t4.5 99t8 83q15 97 71 162.5t153 92.5q117 32 226 10.5t206 -102.5v101h213v-143h-65v-963
q-2 -109 -58.5 -165.5t-161.5 -58.5h-612q-86 -2 -150 25.5t-109 75t-71.5 111.5t-36 135.5t-2.5 147t28 145.5t56 131.5t82 105.5zM1157 531q0 20 -26 47.5t-66 54t-89 46t-95 22.5q-122 9 -180 -48.5t-66 -188.5v-188q0 -41 5 -67t19 -40.5t39 -20t66 -5.5h393v388z
M681 1152h148v-149h-148v149zM907 1152h148v-149h-148v149z" />
    <glyph glyph-name="uni0643" unicode="&#x643;" horiz-adv-x="1610" 
d="M364 752q-40 -44 -68.5 -108t-41 -134t-6 -139t36.5 -122t86 -83t143 -23h730q35 0 57.5 4.5t36 17.5t19 35t6.5 57v918h-68v146h215v-1097q-2 -109 -59 -165.5t-162 -58.5h-817q-82 -3 -144 22t-107 69.5t-72.5 104.5t-39 128t-8.5 140.5t20.5 140.5t47.5 129t72 106z
M925 685v34q-30 3 -53 2t-38 -9.5t-23 -27t-8 -51.5v-84h226v-115h-378v115h35v95q1 51 20.5 90t52.5 64.5t78 35.5t98 3q13 -2 33 -5.5t58 -16.5v-130h-101z" />
    <glyph glyph-name="uni0644" unicode="&#x644;" horiz-adv-x="1135" 
d="M1033 -168q0 -76 -29.5 -136t-80.5 -101t-118 -63.5t-142 -23.5h-193q-75 1 -142 23.5t-118 63.5t-80.5 101t-29.5 136v437h215v-146h-68v-242q10 -113 78.5 -168t186.5 -57h109q59 1 108 12t84.5 34.5t55 62t19.5 95.5v1316h-68v145h215z" />
    <glyph glyph-name="uni0645" unicode="&#x645;" horiz-adv-x="1311" 
d="M195 -489q-37 55 -60.5 118t-31 127.5t2 126t38 114t77.5 92t120 58.5q-5 15 -7 30.5t-4 32.5q-2 35 -2 83.5t1.5 99.5t4.5 99t8 83q15 97 71 162.5t153 92.5q117 32 226 10.5t206 -102.5v101h213v-143h-68v-696h-570q-72 0 -129 26q-89 -18 -135 -66.5t-56 -113.5
t11 -138t65 -140zM999 531q0 20 -26 47.5t-66 54t-89 46t-95 22.5q-122 9 -180 -48.5t-66 -188.5v-188q0 -41 5 -67t19 -40.5t39 -20t66 -5.5h393v388z" />
    <glyph glyph-name="uni0646" unicode="&#x646;" horiz-adv-x="1135" 
d="M1033 -168q0 -76 -29.5 -136t-80.5 -101t-118 -63.5t-142 -23.5h-193q-75 1 -142 23.5t-118 63.5t-80.5 101t-29.5 136v437h215v-146h-68v-242q10 -113 78.5 -168t186.5 -57h109q59 1 108 12t84.5 34.5t55 62t19.5 95.5v682h-68v145h215zM404 687h148v-149h-148v149z" />
    <glyph glyph-name="uni0647" unicode="&#x647;" horiz-adv-x="1084" 
d="M916 696v-696h-570q-229 5 -243 210q-2 35 -2 83.5t1.5 99.5t4.5 99t8 83q15 97 71 162.5t153 92.5q117 32 226 10.5t206 -102.5v101h213v-143h-68zM772 531q0 20 -26 47.5t-66 54t-89 46t-95 22.5q-122 9 -180 -48.5t-66 -188.5v-188q0 -41 5 -67t19 -40.5t39 -20
t66 -5.5h393v388z" />
    <glyph glyph-name="uni0648" unicode="&#x648;" horiz-adv-x="1084" 
d="M772 0h-426q-229 5 -243 210q-2 35 -2 83.5t1.5 99.5t4.5 99t8 83q15 97 71 162.5t153 92.5q117 32 226 10.5t206 -102.5v101h213v-143h-68v-824q0 -92 -34 -163.5t-94 -119t-142.5 -68t-179.5 -9.5q-45 5 -84.5 13.5t-81.5 22.5l16 150q13 -5 42.5 -11.5t62.5 -12.5
t63 -10.5t45 -4.5q118 0 180.5 55.5t62.5 172.5v113zM772 531q0 20 -26 47.5t-66 53.5t-89 45.5t-95 23.5q-122 7 -180 -49.5t-66 -187.5v-188q0 -41 5 -67t19 -40.5t39 -20t66 -5.5h393v388z" />
    <glyph glyph-name="uni0649" unicode="&#x649;" horiz-adv-x="1423" 
d="M1054 91h-361q-105 2 -162 58.5t-59 165.5v164q2 92 38 164t97.5 118.5t144.5 65.5t181 6q103 -14 204 -50.5t186 -87.5l-62 -143q-18 10 -56.5 27.5t-85.5 36.5t-98 36t-94 26q-64 13 -120 4.5t-97 -37.5t-65.5 -77t-25.5 -114v-106q1 -35 6.5 -57t19 -35t36 -17.5
t57.5 -4.5h361q105 -2 162 -58.5t59 -165.5q0 -44 -6 -87q-11 -75 -41 -135t-77 -101.5t-109.5 -64t-137.5 -23.5h-479q-75 1 -138 23.5t-111 64t-79 101.5t-42 135v437h215v-146h-68v-247q10 -113 78.5 -168t186.5 -57h395q119 2 188 58t78 172v5q-1 35 -6.5 57t-19 35
t-36 17.5t-57.5 4.5z" />
    <glyph glyph-name="uni064A" unicode="&#x64a;" horiz-adv-x="1423" 
d="M515 -548h148v-149h-148v149zM741 -548h148v-149h-148v149zM1054 91h-361q-105 2 -162 58.5t-59 165.5v164q2 92 38 164t97.5 118.5t144.5 65.5t181 6q103 -14 204 -50.5t186 -87.5l-62 -143q-18 10 -56.5 27.5t-85.5 36.5t-98 36t-94 26q-64 13 -120 4.5t-97 -37.5
t-65.5 -77t-25.5 -114v-106q1 -35 6.5 -57t19 -35t36 -17.5t57.5 -4.5h361q105 -2 162 -58.5t59 -165.5q0 -44 -6 -87q-11 -75 -41 -135t-77 -101.5t-109.5 -64t-137.5 -23.5h-479q-75 1 -138 23.5t-111 64t-79 101.5t-42 135v437h215v-146h-68v-247q10 -113 78.5 -168
t186.5 -57h395q119 2 188 58t78 172v5q-1 35 -6.5 57t-19 35t-36 17.5t-57.5 4.5z" />
    <glyph glyph-name="uni064B" unicode="&#x64b;" horiz-adv-x="319" 
d="M477 283l16 -48l-579 -179l-16 49zM443 402l16 -48l-579 -179l-16 49z" />
    <glyph glyph-name="uni064C" unicode="&#x64c;" horiz-adv-x="263" 
d="M-218 104h7l164 53l-19 18q-29 23 -43 52.5t-19 64.5q-15 112 98 151l61 13q83 24 113 -59l71 -225l-376 -114v-52h-57v98zM90 370q-5 16 -15 25t-29 3l-73 -16q-27 -9 -35.5 -31t-6.5 -50q4 -45 30.5 -68.5t62.5 -37.5q22 -8 40 -1l77 18z" />
    <glyph glyph-name="uni064D" unicode="&#x64d;" 
d="M477 -84l16 -48l-579 -179l-16 49zM443 35l16 -48l-579 -179l-16 49z" />
    <glyph glyph-name="uni064E" unicode="&#x64e;" 
d="M443 236l16 -48l-579 -179l-16 49z" />
    <glyph glyph-name="uni064F" unicode="&#x64f;" 
d="M-217 128l170 55q-7 6 -10.5 10t-8.5 8q-29 23 -43 52.5t-19 64.5q-15 112 98 151l61 13q83 24 113 -59l71 -225l-410 -124zM90 396q-5 16 -15 25t-29 3l-73 -16q-27 -9 -35.5 -31t-6.5 -50q4 -45 30.5 -68.5t62.5 -37.5q22 -8 40 -1l77 18z" />
    <glyph glyph-name="uni0650" unicode="&#x650;" 
d="M443 236l16 -48l-579 -179l-16 49z" />
    <glyph glyph-name="uni0651" unicode="&#x651;" 
d="M-143 157l-23 -7l-15 53l77 20l56 -195l127 37l-62 219l56 17l62 -221l101 30q18 5 16.5 22.5t-6.5 37.5l-56 196l53 16l60 -204q14 -55 -2.5 -83t-68.5 -43l-319 -90z" />
    <glyph glyph-name="uni0652" unicode="&#x652;" 
d="M-69 372q-35 0 -66 13.5t-54.5 37t-37 54.5t-13.5 66t13.5 66.5t37 55t54.5 37t66 13.5t66.5 -13.5t55 -37t37 -55t13.5 -66.5t-13.5 -66t-37 -54.5t-55 -37t-66.5 -13.5zM-69 647q-22 0 -40.5 -8.5t-32 -22t-22 -33t-8.5 -40.5t8.5 -39.5t22 -32.5t32 -22t40.5 -8
q21 0 40 8t33 22t22 32.5t8 39.5q0 43 -30 73.5t-73 30.5z" />
    <glyph glyph-name="uni0653" unicode="&#x653;" 
d="M-234 28q12 64 40 104q37 54 102 54q33 0 98 -34q55 -34 81 -34q20 0 30 10q17 17 25 55l92 -25q-10 -60 -40 -104q-42 -54 -102 -54q-33 0 -97 34q-61 34 -82 34q-20 0 -30 -10q-17 -17 -26 -55z" />
    <glyph glyph-name="uni0654" unicode="&#x654;" 
d="M-60 151q3 -41 27.5 -64t61.5 -26h127v-61h-315v61h59q-26 37 -26 91v28q0 36 12.5 65t34.5 49t52.5 31t66.5 11q26 0 52.5 -5t53.5 -13v-89h-66v34q-12 4 -23 5.5t-19 1.5q-44 0 -70.5 -25.5t-27.5 -74.5v-19z" />
    <glyph glyph-name="uni0655" unicode="&#x655;" 
d="M-60 -190q3 -41 27.5 -64t61.5 -26h127v-61h-315v61h59q-26 37 -26 91v28q0 36 12.5 65t34.5 49t52.5 31t66.5 11q26 0 52.5 -5t53.5 -13v-89h-66v34q-12 4 -23 5.5t-19 1.5q-44 0 -70.5 -25.5t-27.5 -74.5v-19z" />
    <glyph glyph-name="uni0660" unicode="&#x660;" horiz-adv-x="343" 
d="M100 143h143v-143h-143v143z" />
    <glyph glyph-name="uni0661" unicode="&#x661;" horiz-adv-x="410" 
d="M310 0h-143v1178h-67v144h210v-1322z" />
    <glyph glyph-name="uni0662" unicode="&#x662;" horiz-adv-x="941" 
d="M841 1322v-201h-145v48h-383q-19 0 -31 -7t-18.5 -18.5t-9.5 -26t-4 -29.5l1 -1088h-151v1092q2 109 52.5 167t159.5 63h529z" />
    <glyph glyph-name="uni0663" unicode="&#x663;" horiz-adv-x="1424" 
d="M168 0v1176h-68v145h215v-593h355v537h152v-537h144t138 1q26 1 40 14.5t21 34.5t8 47.5t1 53.5v467h150v-489q0 -74 -15 -126t-47.5 -84.5t-84.5 -47t-126 -14.5h-736v-585h-147z" />
    <glyph glyph-name="uni0664" unicode="&#x664;" horiz-adv-x="1026" 
d="M926 584h-679v-349q2 -48 27 -70t70 -23h582v-141h-546q-60 -1 -110.5 9.5t-87.5 37t-58.5 69.5t-23.5 107v1097h684v64h142v-211h-676v-440h676v-150z" />
    <glyph glyph-name="uni0665" unicode="&#x665;" horiz-adv-x="990" 
d="M890 -1l-790 1v1068q0 129 59.5 189.5t189.5 62.5h310q226 -2 231 -231v-1090zM744 1049q0 36 -5 60t-18 38t-35.5 20t-58.5 6h-264q-33 0 -55 -5.5t-35 -19t-18.5 -35.5t-5.5 -55v-915h495v906z" />
    <glyph glyph-name="uni0666" unicode="&#x666;" horiz-adv-x="941" 
d="M629 1321q109 -5 159.5 -63t52.5 -167v-1091h-151l1 1087q-1 15 -4 29.5t-9.5 26t-18.5 18.5t-31 7h-383v-48h-145v201h529z" />
    <glyph glyph-name="uni0667" unicode="&#x667;" horiz-adv-x="1236" 
d="M988 1323h148v-525q0 -17 -3 -37t-12 -32l-495 -732l-447 702q-14 25 -24.5 54.5t-10.5 57.5v366h-44v144h196v-472q0 -23 6.5 -47t19.5 -43l307 -486l323 475q14 25 25 54t11 57v464z" />
    <glyph glyph-name="uni0668" unicode="&#x668;" horiz-adv-x="1236" 
d="M988 459q0 28 -11 57t-25 54l-323 475l-307 -486q-13 -19 -19.5 -43t-6.5 -47v-470h-196v144h44v364q0 28 10.5 57.5t24.5 54.5l447 702l495 -732q9 -12 12 -32t3 -37v-523h-148v462z" />
    <glyph glyph-name="uni0669" unicode="&#x669;" horiz-adv-x="1058" 
d="M958 142v-142h-190v447q-20 -11 -33 -18t-24 -15q-76 -51 -158 -63t-169 4q-136 25 -208 112.5t-76 237.5v394q2 106 59 163t168 59h586v-1179h45zM348 1172q-20 0 -37.5 -4t-31 -13t-21.5 -25t-8 -40l-2 -429q1 -35 13.5 -60.5t34 -44.5t50.5 -31.5t63 -20.5
q53 -12 99 -6t86 25.5t74.5 51t64.5 70.5q15 19 23 44t8 49l-1 436z" />
    <glyph glyph-name="uni066A" unicode="&#x66a;" horiz-adv-x="1267" 
d="M1167 93q-2 -60 -34 -93t-92 -37h-213q-127 5 -127 133v345q2 80 44.5 120.5t122.5 40.5h149q31 -1 58 -12.5t47 -31t31.5 -46.5t13.5 -58v-361zM823 125q0 -20 8 -31t31 -9h146q11 2 24 14t13 22l1 290q0 24 -10 32t-33 8h-137q-25 0 -34 -10t-9 -33v-283zM100 1182
q1 137 138 142q94 1 192 0q133 -4 136 -137q3 -168 0 -335q-2 -66 -37 -101t-100 -37h-193q-66 2 -100 38t-36 101v329zM443 1156q0 23 -8.5 34t-31.5 11h-143q-5 0 -11.5 -4t-11.5 -10t-8.5 -12.5t-3.5 -10.5v-290q0 -10 13 -22t23 -14q36 -3 71.5 -1t70.5 0q23 -1 31.5 9
t8.5 30v280zM981 1310q27 -16 53 -31t53 -32l-801 -1297q-27 16 -52 32t-51 33z" />
    <glyph glyph-name="uni066B" unicode="&#x66b;" horiz-adv-x="343" 
d="M100 274h143v-331h-143v331z" />
    <glyph glyph-name="uni066C" unicode="&#x66c;" horiz-adv-x="343" 
d="M100 274h143v-331h-143v331z" />
    <glyph glyph-name="uni066D" unicode="&#x66d;" horiz-adv-x="834" 
d="M340 504v131h155v-130l92 92l109 -110l-92 -92h130v-155h-130l92 -92l-110 -109l-91 91v-129h-155v130l-92 -92l-110 109l92 92h-130v155h130l-92 92l109 110z" />
    <glyph glyph-name="uni0671" unicode="&#x671;" horiz-adv-x="640" 
d="M366 0h-143v1111h-67v144h210v-1255zM100 1463h84v121h-20v44h65v-33q15 16 35.5 29t42 22.5t41 16t31.5 9.5q39 6 80 -2q35 -8 56.5 -35.5t22.5 -65.5q1 -18 1 -26.5v-15v-15t-1 -25.5q0 -34 -16.5 -49.5t-50.5 -17.5h-371v43zM441 1627q-35 7 -72 -6t-68.5 -32.5
t-51.5 -37.5t-20 -20v-68h239q26 0 26 28q0 16 0.5 23.5t0.5 12.5t-0.5 12t-0.5 24q-3 54 -53 64z" />
    <glyph glyph-name="uni0679" unicode="&#x679;" horiz-adv-x="1830" 
d="M364 750q-48 -63 -77 -134.5t-39 -159.5q-15 -147 52.5 -228.5t214.5 -84.5h949q35 0 57.5 4.5t36 17.5t19 35t6.5 57v436h-68v146h215v-615q-2 -109 -59 -165.5t-162 -58.5h-1036q-75 1 -137.5 23.5t-109.5 64t-77 101.5t-41 135q-8 57 -7 115t12 115q15 81 46.5 151
t79.5 133zM715 882h84v121h-20v44h65v-33q15 16 35.5 29t42 22.5t41 16t31.5 9.5q39 6 80 -2q35 -8 56.5 -35.5t22.5 -65.5q1 -18 1 -26.5v-15v-15t-1 -25.5q0 -34 -16.5 -49.5t-50.5 -17.5h-371v43zM1056 1046q-35 7 -72 -6t-68.5 -32.5t-51.5 -37.5t-20 -20v-68h239
q26 0 26 28q0 16 0.5 23.5t0.5 12.5t-0.5 12t-0.5 24q-3 54 -53 64z" />
    <glyph glyph-name="uni067E" unicode="&#x67e;" horiz-adv-x="1830" 
d="M364 750q-48 -63 -77 -134.5t-39 -159.5q-15 -147 52.5 -228.5t214.5 -84.5h949q35 0 57.5 4.5t36 17.5t19 35t6.5 57v436h-68v146h215v-615q-2 -109 -59 -165.5t-162 -58.5h-1036q-75 1 -137.5 23.5t-109.5 64t-77 101.5t-41 135q-8 57 -7 115t12 115q15 81 46.5 151
t79.5 133z" />
    <glyph glyph-name="uni0686" unicode="&#x686;" horiz-adv-x="1158" 
d="M597 833q98 13 181.5 -6t145 -66t97 -119.5t37.5 -165.5v-476h-543q-147 -4 -214 -82.5t-52 -225.5q10 -89 44.5 -167t88.5 -145l-122 -90q-93 114 -134 247.5t-18 288.5q23 153 117.5 234t247.5 83h430v312q-1 66 -24 114t-63 76.5t-94.5 37t-118.5 -4.5q-43 -9 -94 -26
t-98 -36t-85.5 -36.5t-56.5 -27.5l-62 143q85 51 186 87.5t204 50.5zM908 -291h-148v149h148v-149zM682 -291h-148v149h148v-149zM796 -497h-148v149h148v-149z" />
    <glyph glyph-name="uni0688" unicode="&#x688;" horiz-adv-x="1079" 
d="M143 646v193h579q134 0 195.5 -61t61.5 -194v-584h-879v143h732v415q-1 41 -6.5 67t-20 40.5t-39.5 19.5t-66 5h-408v-44h-149zM171 1046h84v121h-20v44h65v-33q15 16 35.5 29t42 22.5t41 16t31.5 9.5q39 6 80 -2q35 -8 56.5 -35.5t22.5 -65.5q1 -18 1 -26.5v-15v-15
t-1 -25.5q0 -34 -16.5 -49.5t-50.5 -17.5h-371v43zM512 1210q-35 7 -72 -6t-68.5 -32.5t-51.5 -37.5t-20 -20v-68h239q26 0 26 28q0 16 0.5 23.5t0.5 12.5t-0.5 12t-0.5 24q-3 54 -53 64z" />
    <glyph glyph-name="uni0691" unicode="&#x691;" horiz-adv-x="799" 
d="M0 -464q5 42 10 73.5t11 70.5q25 -9 53.5 -14.5t55.5 -9.5q302 -33 302 266v773h-68v144h216v-943q0 -97 -27 -170t-78 -122t-124.5 -73.5t-166.5 -24.5q-45 0 -93.5 6t-90.5 24zM259 1045h84v121h-20v44h65v-33q15 16 35.5 29t42 22.5t41 16t31.5 9.5q39 6 80 -2
q35 -8 56.5 -35.5t22.5 -65.5q1 -18 1 -26.5v-15v-15t-1 -25.5q0 -34 -16.5 -49.5t-50.5 -17.5h-371v43zM600 1209q-35 7 -72 -6t-68.5 -32.5t-51.5 -37.5t-20 -20v-68h239q26 0 26 28q0 16 0.5 23.5t0.5 12.5t-0.5 12t-0.5 24q-3 54 -53 64z" />
    <glyph glyph-name="uni0698" unicode="&#x698;" horiz-adv-x="691" 
d="M0 -464q5 42 10 73.5t11 70.5q25 -9 53.5 -14.5t55.5 -9.5q302 -33 302 266v773h-68v144h216v-943q0 -97 -27 -170t-78 -122t-124.5 -73.5t-166.5 -24.5q-45 0 -93.5 6t-90.5 24zM217 1152h148v-149h-148v149zM443 1152h148v-149h-148v149zM329 1358h148v-149h-148v149z
" />
    <glyph glyph-name="uni06A4" unicode="&#x6a4;" horiz-adv-x="1660" 
d="M318 686q-27 -51 -44.5 -106.5t-24.5 -118.5q-8 -72 5.5 -130.5t47 -100t87 -64t126.5 -23.5h688q41 0 68.5 7t44 20t23.5 31.5t7 41.5h-66q-91 0 -180.5 -0.5t-179.5 0.5q-112 2 -172.5 52.5t-67.5 153.5q-4 69 -5.5 138t9.5 138q15 97 74.5 163t156.5 93
q103 29 198.5 17.5t185.5 -74.5l41 -30v99h220v-144h-66v-615q-1 -109 -48.5 -168t-153.5 -66h-819q-75 1 -137.5 24.5t-109.5 66t-77 103t-41 135.5q-8 57 -7 114.5t12 114.5q11 60 31 112.5t48 100.5zM1340 668q-31 81 -102 129t-164 55q-123 8 -183.5 -47.5t-62.5 -187.5
l-1 -92q-1 -42 4 -68t19.5 -40.5t40 -20t66.5 -6.5h383v278zM884 1267h148v-149h-148v149zM1110 1267h148v-149h-148v149zM996 1473h148v-149h-148v149z" />
    <glyph glyph-name="uni06A9" unicode="&#x6a9;" horiz-adv-x="1611" 
d="M365 752q-48 -63 -77.5 -135.5t-39.5 -160.5q-15 -147 52.5 -228.5t214.5 -84.5h730q35 0 57.5 4.5t36 17.5t19 35t6.5 57v918h-68v146h215v-1097q-2 -109 -59 -165.5t-162 -58.5h-817q-75 1 -137.5 23.5t-109.5 64t-77 101.5t-41 135q-8 57 -7 115t12 115
q16 82 48.5 152.5t80.5 133.5zM926 685v34q-30 3 -53 2t-38 -9.5t-23 -27t-8 -51.5v-84h226v-115h-378v115h35v95q1 51 20.5 90t52.5 64.5t78 35.5t98 3q13 -2 33 -5.5t58 -16.5v-130h-101z" />
    <glyph glyph-name="uni06AF" unicode="&#x6af;" horiz-adv-x="1611" 
d="M492 893l-24 63l520 326l9 -72zM365 752q-48 -63 -77.5 -135.5t-39.5 -160.5q-15 -147 52.5 -228.5t214.5 -84.5h730q35 0 57.5 4.5t36 17.5t19 35t6.5 57v918h-68v146h215v-1097q-2 -109 -59 -165.5t-162 -58.5h-817q-75 1 -137.5 23.5t-109.5 64t-77 101.5t-41 135
q-8 57 -7 115t12 115q16 82 48.5 152.5t80.5 133.5zM926 685v34q-30 3 -53 2t-38 -9.5t-23 -27t-8 -51.5v-84h226v-115h-378v115h35v95q1 51 20.5 90t52.5 64.5t78 35.5t98 3q13 -2 33 -5.5t58 -16.5v-130h-101z" />
    <glyph glyph-name="uni06F0" unicode="&#x6f0;" horiz-adv-x="343" 
d="M100 143h143v-143h-143v143z" />
    <glyph glyph-name="uni06F1" unicode="&#x6f1;" horiz-adv-x="410" 
d="M310 0h-143v1177h-67v144h210v-1321z" />
    <glyph glyph-name="uni06F2" unicode="&#x6f2;" horiz-adv-x="941" 
d="M841 1321v-201h-145v48h-383q-19 0 -31 -7t-18.5 -18.5t-9.5 -26t-4 -29.5l1 -1087h-151v1091q2 109 52.5 167t159.5 63h529z" />
    <glyph glyph-name="uni06F3" unicode="&#x6f3;" horiz-adv-x="1424" 
d="M168 0v1175h-68v145h215v-592h355v536h152v-536h144t138 1q26 1 40 14.5t21 34.5t8 47.5t1 53.5v466h150v-488q0 -74 -15 -126t-47.5 -84.5t-84.5 -47t-126 -14.5h-736v-585h-147z" />
    <glyph glyph-name="uni06F4" unicode="&#x6f4;" horiz-adv-x="1026" 
d="M926 584h-679v-349q2 -48 27 -70t70 -23h582v-141h-546q-60 -1 -110.5 9.5t-87.5 37t-58.5 69.5t-23.5 107v1097h684v64h142v-211h-676v-440h676v-150z" />
    <glyph glyph-name="uni06F5" unicode="&#x6f5;" horiz-adv-x="990" 
d="M890 -1l-790 1v1068q0 129 59.5 189.5t189.5 62.5h310q226 -2 231 -231v-1090zM744 1049q0 36 -5 60t-18 38t-35.5 20t-58.5 6h-264q-33 0 -55 -5.5t-35 -19t-18.5 -35.5t-5.5 -55v-915h495v906z" />
    <glyph glyph-name="uni06F6" unicode="&#x6f6;" horiz-adv-x="941" 
d="M629 1321q109 -5 159.5 -63t52.5 -167v-1091h-151l1 1087q-1 15 -4 29.5t-9.5 26t-18.5 18.5t-31 7h-383v-48h-145v201h529z" />
    <glyph glyph-name="uni06F7" unicode="&#x6f7;" horiz-adv-x="1236" 
d="M988 1321h148v-523q0 -17 -3 -37t-12 -32l-495 -732l-447 702q-14 25 -24.5 54.5t-10.5 57.5v364h-44v144h196v-470q0 -23 6.5 -47t19.5 -43l307 -486l323 475q14 25 25 54t11 57v462z" />
    <glyph glyph-name="uni06F8" unicode="&#x6f8;" horiz-adv-x="1236" 
d="M988 457q0 28 -11 57t-25 54l-323 475l-307 -486q-13 -19 -19.5 -43t-6.5 -47v-468h-196v144h44v362q0 28 10.5 57.5t24.5 54.5l447 702l495 -732q9 -12 12 -32t3 -37v-521h-148v460z" />
    <glyph glyph-name="uni06F9" unicode="&#x6f9;" horiz-adv-x="1058" 
d="M958 142v-142h-190v447q-20 -11 -33 -18t-24 -15q-76 -51 -158 -63t-169 4q-136 25 -208 112.5t-76 237.5v396q2 106 59 163t168 59h586v-1181h45zM348 1174q-20 0 -37.5 -4t-31 -13t-21.5 -25t-8 -40l-2 -431q1 -35 13.5 -60.5t34 -44.5t50.5 -31.5t63 -20.5
q53 -12 99 -6t86 25.5t74.5 51t64.5 70.5q15 19 23 44t8 49l-1 438z" />
    <glyph glyph-name="Euro" unicode="&#x20ac;" horiz-adv-x="927" 
d="M748 691v-141h-380v-103h380v-141h-380v-27q0 -43 5.5 -69t20 -40.5t41 -20t68.5 -6.5h322v-143h-419q-94 11 -138.5 68.5t-47.5 160.5v77h-120v141h120v103h-120v141h120v96q10 229 238 233h369v-147h-324q-43 -1 -69.5 -6t-41 -19.5t-19.5 -40.5t-5 -69v-47h380z" />
    <glyph glyph-name="uniFD3E" unicode="&#xfd3e;" horiz-adv-x="677" 
d="M577 1321v-147h-194q-43 -1 -69.5 -6t-41 -19.5t-19.5 -40.5t-5 -69v-760q0 -43 5.5 -69t20 -40.5t41 -20t68.5 -6.5h192v-143h-289q-94 11 -138.5 68.5t-47.5 160.5v859q10 229 238 233h239z" />
    <glyph glyph-name="uniFD3F" unicode="&#xfd3f;" horiz-adv-x="677" 
d="M339 1321q228 -4 238 -233v-859q-3 -103 -47.5 -160.5t-138.5 -68.5h-289v143h192q42 1 68.5 6.5t41 20t20 40.5t5.5 69v760q0 43 -5 69t-19.5 40.5t-41 19.5t-69.5 6h-194v147h239z" />
    <glyph glyph-name="glyph294" 
d="M73 -125l-57 -8l-57 387l-27 -4l-8 57l84 13z" />
    <glyph glyph-name="glyph295" 
d="M41 -418h-85v58h27v391h58v-449z" />
    <glyph glyph-name="glyph309" horiz-adv-x="1536" 
 />
    <glyph glyph-name="glyph310" horiz-adv-x="1536" 
 />
    <glyph glyph-name="glyph312" horiz-adv-x="1536" 
 />
    <glyph glyph-name="glyph313" horiz-adv-x="1024" 
 />
  </font>
</defs>
</svg>
